<?xml version="1.0" encoding="UTF-8" standalone="no"?>
<svg
   xmlns:dc="http://purl.org/dc/elements/1.1/"
   xmlns:cc="http://creativecommons.org/ns#"
   xmlns:rdf="http://www.w3.org/1999/02/22-rdf-syntax-ns#"
   xmlns:svg="http://www.w3.org/2000/svg"
   xmlns="http://www.w3.org/2000/svg"
   xmlns:sodipodi="http://sodipodi.sourceforge.net/DTD/sodipodi-0.dtd"
   xmlns:inkscape="http://www.inkscape.org/namespaces/inkscape"
   version="1.1"
   x="0px"
   y="0px"
   width="100px"
   height="100px"
   viewBox="0 0 100 100"
   enable-background="new 0 0 100 100"
   xml:space="preserve"
   id="svg2"
   inkscape:version="0.48.5 r10040"
   sodipodi:docname="thumbs_up.svg"><metadata
   id="metadata12"><rdf:RDF><cc:Work
       rdf:about=""><dc:format>image/svg+xml</dc:format><dc:type
         rdf:resource="http://purl.org/dc/dcmitype/StillImage" /><dc:title></dc:title></cc:Work></rdf:RDF></metadata><defs
   id="defs10">
	
</defs><sodipodi:namedview
   pagecolor="#4174ff"
   bordercolor="#666666"
   borderopacity="1"
   objecttolerance="10"
   gridtolerance="10"
   guidetolerance="10"
   inkscape:pageopacity="0"
   inkscape:pageshadow="2"
   inkscape:window-width="1600"
   inkscape:window-height="1139"
   id="namedview8"
   showgrid="false"
   inkscape:zoom="3.1925871"
   inkscape:cx="125.61882"
   inkscape:cy="72.046168"
   inkscape:window-x="0"
   inkscape:window-y="0"
   inkscape:window-maximized="0"
   inkscape:current-layer="svg2" />
<g
   id="Captions">
</g>
<path
   inkscape:connector-curvature="0"
   id="path6"
   d="m 21.731934,48.127094 c 0.121616,-0.06925 0.247454,-0.128372 0.379205,-0.176512 0.05827,-0.02196 5.898361,-2.225398 9.312891,-6.910136 1.994835,-2.737198 4.960063,-5.129818 8.100112,-7.662634 3.477872,-2.806451 7.074825,-5.708337 9.483492,-9.198032 1.49317,-2.160368 2.555618,-4.222768 3.494762,-6.043625 1.73978,-3.376525 3.242241,-6.292768 6.427052,-6.292768 0.980527,0 1.949229,0.304884 2.961849,0.933232 2.11814,1.31328 3.49054,3.584285 3.863832,6.394114 0.587809,4.415326 -1.351285,9.50545 -5.188936,13.616736 -2.499034,2.677234 -2.903575,4.768349 -2.489744,5.744653 0.430722,1.019376 1.980478,1.652791 4.144224,1.695019 0.755031,0.0152 1.519352,0.02027 2.280294,0.02618 5.43808,0.04138 10.574654,0.07939 13.442758,3.065729 1.309903,1.364798 1.93825,3.137516 1.867308,5.268325 -0.09206,2.78027 -0.95519,4.654334 -2.162057,5.82404 0.461126,0.730539 0.827662,1.581849 1.007552,2.564909 0.43579,2.388398 -0.35809,4.849426 -2.360527,7.337481 0.609768,1.037956 1.113966,2.4112 0.996573,4.032743 -0.158776,2.173881 -1.367332,4.130711 -3.599487,5.827419 -0.03547,1.590294 -0.402007,4.006562 -2.000747,6.178753 -1.662926,2.260025 -4.185607,3.65016 -7.497946,4.13409 -1.468678,0.216205 -3.0159,0.321774 -4.732033,0.321774 -4.157737,0 -8.526612,-0.643549 -12.380309,-1.211089 -3.240702,-0.405057 -6.3542,-0.920655 -9.39228,-0.93661 -6.340907,0 -10.168424,0 -11.984214,-5.340956 -0.185801,-0.544736 -0.701824,-1.71022 -1.299767,-3.058127 C 20.742962,65.997001 14.610659,52.16406 21.731934,48.127094 z m 2.662033,11.572072 c 1.152815,4.313134 3.325851,9.214078 4.763281,12.455475 0.701824,1.583537 1.208556,2.727907 1.468679,3.492228 0.547271,1.613097 0.618213,1.817479 7.06469,1.817479 3.573018,0.02825 7.186404,0.558201 10.148999,0.994884 3.857076,0.565851 7.845902,1.152816 11.624434,1.152816 1.460233,0 2.762535,-0.08615 3.978692,-0.26519 3.382436,-0.493219 4.559744,-2.598037 4.927969,-4.178197 l -2.862191,0 c -1.434052,0 -2.597847,-0.882367 -2.597847,-2.318953 0,-1.433207 1.163795,-2.317264 2.597847,-2.317264 l 4.743012,0 c 1.130857,-0.794725 1.801433,-1.885234 1.857173,-2.547364 0.03632,-0.41552 -0.163843,-1.128514 -0.390184,-1.471403 l -10.701337,0 c -1.434896,0 -2.598691,-0.882368 -2.598691,-2.317264 0,-1.434896 1.163795,-2.318953 2.598691,-2.318953 l 10.765523,0 c 1.302302,-1.439964 1.928116,-3.004268 1.764273,-3.951012 -0.158776,-0.923941 -1.105521,-1.957866 -1.7212,-2.336226 l -13.283138,0 c -1.434896,0 -2.598691,-0.882367 -2.598691,-2.317264 0,-1.434896 1.163795,-2.317264 2.598691,-2.317264 l 13.300029,0 c 0.573322,-0.125488 1.189127,0.0504 1.716977,0.143575 0.242387,0 0.977993,-0.280583 1.058225,-2.682493 0.02956,-0.905362 -0.210293,-1.276121 -0.422276,-1.496549 -1.349597,-1.405337 -5.998019,-1.439964 -9.732635,-1.467834 -0.782901,-0.0059 -1.567491,-0.01182 -2.342791,-0.02618 -4.339316,-0.08615 -7.557065,-1.859707 -8.829807,-4.867162 -1.403648,-3.319095 -0.135973,-7.44305 3.477872,-11.315327 3.281934,-3.516721 4.134089,-7.153369 3.836806,-9.384679 0.186188,-0.714127 -1.212735,-3.303137 -1.701578,-2.586958 -0.492732,0.731543 -1.132743,1.986479 -1.782205,3.247397 -0.960257,1.862241 -2.155301,4.181385 -3.836807,6.616232 -2.837699,4.107908 -6.907603,7.391532 -10.496955,10.288351 -2.86557,2.312387 -5.573208,4.495558 -7.163503,6.679573 -3.889168,5.337578 -10.002891,8.036771 -11.418363,8.608534 -0.546426,0.461971 -1.046401,2.366439 0.188336,6.986993 z"
   style="fill:#ffffff;fill-opacity:1"
   sodipodi:nodetypes="ccccccsccsccccccccccccsccccccccccsccssscccssscccssscccccccscccccccc" />
<path
   inkscape:export-ydpi="48.740002"
   inkscape:export-xdpi="48.740002"
   inkscape:export-filename="C:\_KatyAWebster\Inkscape\Icons\Appointments\hamburger_32.png"
   sodipodi:type="arc"
   style="fill:none;stroke:#ffffff;stroke-width:1.28347623;stroke-linecap:square;stroke-linejoin:round;stroke-miterlimit:4;stroke-opacity:1;stroke-dasharray:none;stroke-dashoffset:0"
   id="path3877"
   sodipodi:cx="12.5"
   sodipodi:cy="9"
   sodipodi:rx="22.5"
   sodipodi:ry="25"
   d="M 35,9 A 22.5,25 0 1 1 -10,9 22.5,25 0 1 1 35,9 z"
   transform="matrix(2.0589387,-0.01940707,0.01746639,1.8530448,24.382923,33.731298)" /></svg>