<?xml version="1.0" encoding="UTF-8" standalone="no"?>
<svg
   xmlns:dc="http://purl.org/dc/elements/1.1/"
   xmlns:cc="http://creativecommons.org/ns#"
   xmlns:rdf="http://www.w3.org/1999/02/22-rdf-syntax-ns#"
   xmlns:svg="http://www.w3.org/2000/svg"
   xmlns="http://www.w3.org/2000/svg"
   xmlns:sodipodi="http://sodipodi.sourceforge.net/DTD/sodipodi-0.dtd"
   xmlns:inkscape="http://www.inkscape.org/namespaces/inkscape"
   version="1.1"
   id="Your_Icon"
   x="0px"
   y="0px"
   width="100px"
   height="100px"
   viewBox="0 0 100 100"
   enable-background="new 0 0 100 100"
   xml:space="preserve"
   inkscape:version="0.48.5 r10040"
   sodipodi:docname="icon_53374.svg"><metadata
   id="metadata97"><rdf:RDF><cc:Work
       rdf:about=""><dc:format>image/svg+xml</dc:format><dc:type
         rdf:resource="http://purl.org/dc/dcmitype/StillImage" /><dc:title></dc:title></cc:Work></rdf:RDF></metadata><defs
   id="defs95">
	

	
	
	
	

		
		
	
		
		
	
		
		
	
		
		
	
			
		
			
		
			
		
			
		
			
		
			
		
			
		
			
		</defs><sodipodi:namedview
   pagecolor="#2237ff"
   bordercolor="#666666"
   borderopacity="1"
   objecttolerance="10"
   gridtolerance="10"
   guidetolerance="10"
   inkscape:pageopacity="0"
   inkscape:pageshadow="2"
   inkscape:window-width="1600"
   inkscape:window-height="1139"
   id="namedview93"
   showgrid="false"
   inkscape:zoom="4.61"
   inkscape:cx="1.1708398"
   inkscape:cy="58.729352"
   inkscape:window-x="0"
   inkscape:window-y="0"
   inkscape:window-maximized="0"
   inkscape:current-layer="Your_Icon" />
<path
   style="fill:#ffffff;fill-opacity:1;stroke:none"
   d="M 6.96875 3.90625 C 5.834294 3.90625 4.90625 4.6469526 4.90625 5.5625 L 4.90625 94.4375 C 4.90625 95.353048 5.835563 96.09375 6.96875 96.09375 L 93.9375 96.09375 C 95.07196 96.09375 96 95.354072 96 94.4375 L 96 5.5625 C 96 4.6469526 95.07069 3.90625 93.9375 3.90625 L 6.96875 3.90625 z M 33.59375 20.03125 C 34.00775 20.03125 34.40275 20.184 34.71875 20.5 C 35.35075 21.132 35.35075 22.15025 34.71875 22.78125 L 27.15625 30.34375 C 26.84125 30.65975 26.44625 30.8125 26.03125 30.8125 C 25.61725 30.8125 25.191 30.65975 24.875 30.34375 L 21.09375 26.5625 C 20.46175 25.9305 20.46175 24.91225 21.09375 24.28125 C 21.72575 23.64925 22.743 23.64925 23.375 24.28125 L 26.03125 26.90625 L 32.4375 20.5 C 32.7535 20.184 33.17975 20.03125 33.59375 20.03125 z M 43.78125 23.8125 L 77.84375 23.8125 C 79.179603 23.8125 80.28125 24.51225 80.28125 25.40625 C 80.28125 26.29925 79.179603 27.03125 77.84375 27.03125 L 43.78125 27.03125 C 42.445397 27.03125 41.34375 26.30025 41.34375 25.40625 C 41.34375 24.51225 42.445397 23.8125 43.78125 23.8125 z M 33.59375 36.40625 C 34.00775 36.40625 34.40275 36.559 34.71875 36.875 C 35.35075 37.507 35.35075 38.52525 34.71875 39.15625 L 27.15625 46.71875 C 26.84125 47.03475 26.44625 47.21875 26.03125 47.21875 C 25.61725 47.21875 25.191 47.03475 24.875 46.71875 L 21.09375 42.9375 C 20.46175 42.3055 20.46175 41.28725 21.09375 40.65625 C 21.72575 40.02425 22.743 40.02425 23.375 40.65625 L 26.03125 43.3125 L 32.4375 36.875 C 32.7535 36.559 33.17975 36.40625 33.59375 36.40625 z M 43.78125 40.1875 L 77.84375 40.1875 C 79.179603 40.1875 80.28125 40.9185 80.28125 41.8125 C 80.28125 42.7065 79.179603 43.4375 77.84375 43.4375 L 43.78125 43.4375 C 42.445397 43.4375 41.34375 42.7065 41.34375 41.8125 C 41.34375 40.9185 42.445397 40.1875 43.78125 40.1875 z M 33.59375 52.78125 C 34.00775 52.78125 34.40275 52.96525 34.71875 53.28125 C 35.35075 53.91325 35.35075 54.9315 34.71875 55.5625 L 27.15625 63.125 C 26.84125 63.441 26.44625 63.59375 26.03125 63.59375 C 25.61725 63.59375 25.191 63.441 24.875 63.125 L 21.09375 59.34375 C 20.46175 58.71175 20.46175 57.6935 21.09375 57.0625 C 21.72575 56.4305 22.743 56.4305 23.375 57.0625 L 26.03125 59.6875 L 32.4375 53.28125 C 32.7535 52.96525 33.17975 52.78125 33.59375 52.78125 z M 43.78125 56.5625 L 77.84375 56.5625 C 79.179603 56.5625 80.28125 57.2935 80.28125 58.1875 C 80.28125 59.0805 79.179603 59.8125 77.84375 59.8125 L 43.78125 59.8125 C 42.445397 59.8125 41.34375 59.0815 41.34375 58.1875 C 41.34375 57.2935 42.445397 56.5625 43.78125 56.5625 z M 33.59375 69.1875 C 34.00775 69.1875 34.40275 69.34025 34.71875 69.65625 C 35.35075 70.28825 35.35075 71.3065 34.71875 71.9375 L 27.15625 79.5 C 26.84125 79.816 26.44625 79.96875 26.03125 79.96875 C 25.61725 79.96875 25.191 79.816 24.875 79.5 L 21.09375 75.71875 C 20.46175 75.08675 20.46175 74.0685 21.09375 73.4375 C 21.72575 72.8055 22.743 72.8055 23.375 73.4375 L 26.03125 76.0625 L 32.4375 69.65625 C 32.7535 69.34025 33.17975 69.1875 33.59375 69.1875 z M 43.78125 72.96875 L 77.84375 72.96875 C 79.179603 72.96875 80.28125 73.69975 80.28125 74.59375 C 80.28125 75.48775 79.179603 76.1875 77.84375 76.1875 L 43.78125 76.1875 C 42.445397 76.1875 41.34375 75.48775 41.34375 74.59375 C 41.34375 73.69975 42.445397 72.96875 43.78125 72.96875 z "
   id="path91" />






</svg>