<?xml version="1.0" encoding="UTF-8" standalone="no"?>
<!-- Created with Inkscape (http://www.inkscape.org/) -->

<svg
   xmlns:dc="http://purl.org/dc/elements/1.1/"
   xmlns:cc="http://creativecommons.org/ns#"
   xmlns:rdf="http://www.w3.org/1999/02/22-rdf-syntax-ns#"
   xmlns:svg="http://www.w3.org/2000/svg"
   xmlns="http://www.w3.org/2000/svg"
   xmlns:sodipodi="http://sodipodi.sourceforge.net/DTD/sodipodi-0.dtd"
   xmlns:inkscape="http://www.inkscape.org/namespaces/inkscape"
   id="svg2"
   version="1.1"
   inkscape:version="0.48.5 r10040"
   width="100"
   height="100"
   xml:space="preserve"
   sodipodi:docname="INPS_Logo.svg"
   inkscape:export-filename="C:\_KatyAWebster\Inkscape\vision.png"
   inkscape:export-xdpi="202.44138"
   inkscape:export-ydpi="202.44138"><metadata
     id="metadata8"><rdf:RDF><cc:Work
         rdf:about=""><dc:format>image/svg+xml</dc:format><dc:type
           rdf:resource="http://purl.org/dc/dcmitype/StillImage" /><dc:title /></cc:Work></rdf:RDF></metadata><defs
     id="defs6"><clipPath
       clipPathUnits="userSpaceOnUse"
       id="clipPath20"><path
         d="m 0,123.807 382.984,0 L 382.984,0 0,0 0,123.807 z"
         id="path22"
         inkscape:connector-curvature="0" /></clipPath><clipPath
       clipPathUnits="userSpaceOnUse"
       id="clipPath20-1"><path
         inkscape:connector-curvature="0"
         d="m 0,123.807 382.984,0 L 382.984,0 0,0 0,123.807 z"
         id="path22-7" /></clipPath></defs><sodipodi:namedview
     pagecolor="#31299d"
     bordercolor="#666666"
     borderopacity="1"
     objecttolerance="10"
     gridtolerance="10"
     guidetolerance="10"
     inkscape:pageopacity="0"
     inkscape:pageshadow="2"
     inkscape:window-width="1600"
     inkscape:window-height="1139"
     id="namedview4"
     showgrid="false"
     inkscape:zoom="9.03"
     inkscape:cx="52.325581"
     inkscape:cy="50"
     inkscape:window-x="-9"
     inkscape:window-y="-9"
     inkscape:window-maximized="1"
     inkscape:current-layer="g10" /><g
     id="g10"
     inkscape:groupmode="layer"
     inkscape:label="Vision_logo_grey"
     transform="matrix(1.25,0,0,-1.25,0,100.00001)"><g
       id="g3577"
       inkscape:export-filename="C:\_KatyAWebster\Inkscape\inps_logo_76.png"
       inkscape:export-xdpi="185.78"
       inkscape:export-ydpi="185.78"
       transform="matrix(2.5629028,0,0,2.5629028,-308.65805,-110.09611)"><g
         style="fill:#ffffff;fill-opacity:1"
         transform="translate(136.2964,51.3125)"
         id="g40"><path
           inkscape:connector-curvature="0"
           id="path42"
           style="fill:#ffffff;fill-opacity:1;fill-rule:nonzero;stroke:none"
           d="m 0,0 c -1.057,0 -2.05,-0.413 -2.797,-1.16 -0.745,-0.746 -1.156,-1.736 -1.156,-2.793 l 0,-0.004 c 0,-2.181 1.774,-3.954 3.953,-3.954 2.18,0 3.954,1.773 3.954,3.954 C 3.954,-1.775 2.18,0 0,0" /></g><g
         style="fill:#ffffff;fill-opacity:1"
         transform="translate(125.4717,73.1167)"
         id="g44"><path
           inkscape:connector-curvature="0"
           id="path46"
           style="fill:#ffffff;fill-opacity:1;fill-rule:nonzero;stroke:none"
           d="m 0,0 c -2.18,0 -3.953,-1.774 -3.953,-3.955 0,-2.18 1.773,-3.953 3.953,-3.953 1.057,0 2.05,0.411 2.797,1.158 0.746,0.749 1.157,1.741 1.157,2.795 C 3.956,-2.9 3.545,-1.908 2.799,-1.16 2.051,-0.412 1.058,0 0,0" /></g><g
         style="fill:#ffffff;fill-opacity:1"
         transform="translate(143.0796,47.3545)"
         id="g48"><path
           inkscape:connector-curvature="0"
           id="path50"
           style="fill:#ffffff;fill-opacity:1;fill-rule:nonzero;stroke:none"
           d="M 0,0 0,0.001 0,0 z M 1.155,2.796 C 0.41,2.052 0,1.062 0,0.005 L 0,0.001 c 0,-2.181 1.774,-3.954 3.954,-3.954 2.18,0 3.954,1.773 3.954,3.954 C 7.906,2.183 6.133,3.958 3.954,3.958 2.896,3.958 1.902,3.545 1.155,2.796" /></g><g
         style="fill:#ffffff;fill-opacity:1"
         transform="translate(139.271,60.6885)"
         id="g52"><path
           inkscape:connector-curvature="0"
           id="path54"
           style="fill:#ffffff;fill-opacity:1;fill-rule:nonzero;stroke:none"
           d="M 0,0 C -2.328,2.419 -0.656,5.032 -0.016,5.857 0.05,5.931 0.114,6.008 0.173,6.088 0.195,6.11 0.206,6.123 0.206,6.123 l -0.005,0 c 0.504,0.678 0.778,1.494 0.778,2.356 0.001,1.048 -0.407,2.039 -1.152,2.785 -0.748,0.751 -1.743,1.164 -2.802,1.164 -2.178,0 -3.952,-1.774 -3.952,-3.952 0,-0.861 0.276,-1.676 0.779,-2.353 l -0.004,0 c 0,0 0.011,-0.013 0.03,-0.035 0.05,-0.067 0.101,-0.132 0.156,-0.194 0.589,-0.771 2.233,-3.361 0.024,-5.784 -2.606,-2.381 -5.138,0.246 -5.138,0.246 l 0,-0.005 c -0.7,0.627 -1.623,1.013 -2.635,1.013 -2.18,0 -3.953,-1.773 -3.955,-3.956 0,-1.055 0.412,-2.049 1.159,-2.796 0.748,-0.746 1.74,-1.158 2.797,-1.156 1.006,0 1.95,0.375 2.683,1.055 l 0,-0.007 c 0,0 0.014,0.015 0.037,0.039 0.025,0.025 0.053,0.047 0.078,0.072 0.026,0.026 0.048,0.055 0.073,0.08 0.629,0.597 2.756,2.26 4.997,-0.005 0.718,-0.735 1.719,-1.195 2.826,-1.195 1.059,0 2.054,0.413 2.802,1.162 0.745,0.746 1.155,1.739 1.153,2.794 0,0.971 -0.353,1.86 -0.937,2.549 L 0,0 z" /></g><g
         style="fill:#ffffff;fill-opacity:1"
         transform="translate(136.2085,51.2705)"
         id="g76"><path
           inkscape:connector-curvature="0"
           id="path78"
           style="fill:#ffffff;fill-opacity:1;fill-rule:nonzero;stroke:none"
           d="m 0,0 c -1.063,0 -2.062,-0.416 -2.813,-1.167 -0.75,-0.751 -1.163,-1.749 -1.163,-2.809 l 0,-0.005 c 0,-2.192 1.785,-3.978 3.976,-3.978 2.193,0 3.978,1.786 3.978,3.978 C 3.978,-1.787 2.193,0 0,0" /></g><g
         style="fill:#ffffff;fill-opacity:1"
         transform="translate(125.3188,72.96)"
         id="g80"><path
           inkscape:connector-curvature="0"
           id="path82"
           style="fill:#ffffff;fill-opacity:1;fill-rule:nonzero;stroke:none"
           d="m 0,0 c -2.193,0 -3.977,-1.785 -3.977,-3.979 0,-2.192 1.784,-3.976 3.977,-3.976 1.063,0 2.062,0.414 2.813,1.165 0.752,0.752 1.166,1.75 1.165,2.811 10e-4,1.063 -0.412,2.06 -1.162,2.812 C 2.064,-0.414 1.064,0 0,0" /></g><g
         style="fill:#ffffff;fill-opacity:1"
         transform="translate(143.0322,47.2891)"
         id="g84"><path
           inkscape:connector-curvature="0"
           id="path86"
           style="fill:#ffffff;fill-opacity:1;fill-rule:nonzero;stroke:none"
           d="M 0,0 z M 1.163,2.814 C 0.414,2.063 0,1.065 0,0.006 L 0,0 C 0,-2.193 1.785,-3.978 3.978,-3.978 6.171,-3.978 7.956,-2.193 7.956,0 7.955,2.194 6.17,3.981 3.978,3.981 2.915,3.981 1.915,3.565 1.163,2.814" /></g><g
         style="fill:#ffffff;fill-opacity:1"
         transform="translate(139.2012,60.7021)"
         id="g88"><path
           inkscape:connector-curvature="0"
           id="path90"
           style="fill:#ffffff;fill-opacity:1;fill-rule:nonzero;stroke:none"
           d="M 0,0 C -2.341,2.435 -0.66,5.064 -0.016,5.893 0.051,5.969 0.115,6.045 0.175,6.125 0.195,6.147 0.207,6.16 0.207,6.16 l -0.005,0 c 0.506,0.683 0.784,1.504 0.782,2.369 0.002,1.057 -0.409,2.053 -1.158,2.804 -0.753,0.754 -1.753,1.171 -2.819,1.171 -2.191,0 -3.975,-1.783 -3.975,-3.977 -0.001,-0.864 0.277,-1.686 0.783,-2.367 l -0.005,0 c 0,0 0.011,-0.013 0.031,-0.034 C -6.108,6.06 -6.057,5.994 -6.001,5.93 -5.41,5.154 -3.756,2.55 -5.979,0.111 -8.6,-2.283 -11.147,0.358 -11.147,0.358 l 0,-0.005 c -0.705,0.632 -1.632,1.02 -2.651,1.02 -2.192,0 -3.977,-1.785 -3.978,-3.978 0,-1.063 0.414,-2.063 1.166,-2.815 0.752,-0.75 1.75,-1.164 2.813,-1.164 1.012,0 1.963,0.379 2.7,1.062 l 0,-0.006 c 0,0 0.014,0.014 0.036,0.039 0.026,0.025 0.055,0.048 0.081,0.073 0.025,0.025 0.047,0.053 0.072,0.08 0.632,0.601 2.772,2.273 5.027,-0.006 0.722,-0.74 1.729,-1.2 2.843,-1.2 1.066,0 2.067,0.415 2.819,1.166 0.749,0.753 1.162,1.75 1.159,2.812 0,0.976 -0.355,1.872 -0.942,2.564 L 0,0 z" /></g><g
         style="fill:#ffffff;fill-opacity:1"
         transform="translate(136.2964,51.3125)"
         id="g112"><path
           inkscape:connector-curvature="0"
           id="path114"
           style="fill:#ffffff;fill-opacity:1;fill-rule:nonzero;stroke:none"
           d="m 0,0 c -1.057,0 -2.05,-0.413 -2.797,-1.16 -0.745,-0.746 -1.156,-1.736 -1.156,-2.793 l 0,-0.004 c 0,-2.181 1.774,-3.954 3.953,-3.954 2.18,0 3.954,1.773 3.954,3.954 C 3.954,-1.775 2.18,0 0,0" /></g><g
         style="fill:#ffffff;fill-opacity:1"
         transform="translate(125.4717,73.1167)"
         id="g116"><path
           inkscape:connector-curvature="0"
           id="path118"
           style="fill:#ffffff;fill-opacity:1;fill-rule:nonzero;stroke:none"
           d="m 0,0 c -2.18,0 -3.953,-1.774 -3.953,-3.955 0,-2.18 1.773,-3.953 3.953,-3.953 1.057,0 2.05,0.411 2.797,1.158 0.746,0.749 1.157,1.741 1.157,2.795 C 3.956,-2.9 3.545,-1.908 2.799,-1.16 2.051,-0.412 1.058,0 0,0" /></g><g
         style="fill:#ffffff;fill-opacity:1"
         transform="translate(143.0796,47.3545)"
         id="g120"><path
           inkscape:connector-curvature="0"
           id="path122"
           style="fill:#ffffff;fill-opacity:1;fill-rule:nonzero;stroke:none"
           d="M 0,0 0,0.001 0,0 z M 1.155,2.796 C 0.41,2.052 0,1.062 0,0.005 L 0,0.001 c 0,-2.181 1.774,-3.954 3.954,-3.954 2.18,0 3.954,1.773 3.954,3.954 C 7.906,2.183 6.133,3.958 3.954,3.958 2.896,3.958 1.902,3.545 1.155,2.796" /></g><g
         style="fill:#ffffff;fill-opacity:1"
         transform="translate(139.271,60.6885)"
         id="g124"><path
           inkscape:connector-curvature="0"
           id="path126"
           style="fill:#ffffff;fill-opacity:1;fill-rule:nonzero;stroke:none"
           d="M 0,0 C -2.328,2.419 -0.656,5.032 -0.016,5.857 0.05,5.931 0.114,6.008 0.173,6.088 0.195,6.11 0.206,6.123 0.206,6.123 l -0.005,0 c 0.504,0.678 0.778,1.494 0.778,2.356 0.001,1.048 -0.407,2.039 -1.152,2.785 -0.748,0.751 -1.743,1.164 -2.802,1.164 -2.178,0 -3.952,-1.774 -3.952,-3.952 0,-0.861 0.276,-1.676 0.779,-2.353 l -0.004,0 c 0,0 0.011,-0.013 0.03,-0.035 0.05,-0.067 0.101,-0.132 0.156,-0.194 0.589,-0.771 2.233,-3.361 0.024,-5.784 -2.606,-2.381 -5.138,0.246 -5.138,0.246 l 0,-0.005 c -0.7,0.627 -1.623,1.013 -2.635,1.013 -2.18,0 -3.953,-1.773 -3.955,-3.956 0,-1.055 0.412,-2.049 1.159,-2.796 0.748,-0.746 1.74,-1.158 2.797,-1.156 1.006,0 1.95,0.375 2.683,1.055 l 0,-0.007 c 0,0 0.014,0.015 0.037,0.039 0.025,0.025 0.053,0.047 0.078,0.072 0.026,0.026 0.048,0.055 0.073,0.08 0.629,0.597 2.756,2.26 4.997,-0.005 0.718,-0.735 1.719,-1.195 2.826,-1.195 1.059,0 2.054,0.413 2.802,1.162 0.745,0.746 1.155,1.739 1.153,2.794 0,0.971 -0.353,1.86 -0.937,2.549 L 0,0 z" /></g><g
         style="fill:#ffffff;fill-opacity:1"
         transform="translate(136.2085,51.2705)"
         id="g148"><path
           inkscape:connector-curvature="0"
           id="path150"
           style="fill:#ffffff;fill-opacity:1;fill-rule:nonzero;stroke:none"
           d="m 0,0 c -1.063,0 -2.062,-0.416 -2.813,-1.167 -0.75,-0.751 -1.163,-1.749 -1.163,-2.809 l 0,-0.005 c 0,-2.192 1.785,-3.978 3.976,-3.978 2.193,0 3.978,1.786 3.978,3.978 C 3.978,-1.787 2.193,0 0,0" /></g><g
         style="fill:#ffffff;fill-opacity:1"
         transform="translate(125.3188,72.96)"
         id="g152"><path
           inkscape:connector-curvature="0"
           id="path154"
           style="fill:#ffffff;fill-opacity:1;fill-rule:nonzero;stroke:none"
           d="m 0,0 c -2.193,0 -3.977,-1.785 -3.977,-3.979 0,-2.192 1.784,-3.976 3.977,-3.976 1.063,0 2.062,0.414 2.813,1.165 0.752,0.752 1.166,1.75 1.165,2.811 10e-4,1.063 -0.412,2.06 -1.162,2.812 C 2.064,-0.414 1.064,0 0,0" /></g><g
         style="fill:#ffffff;fill-opacity:1"
         transform="translate(143.0322,47.2891)"
         id="g156"><path
           inkscape:connector-curvature="0"
           id="path158"
           style="fill:#ffffff;fill-opacity:1;fill-rule:nonzero;stroke:none"
           d="M 0,0 z M 1.163,2.814 C 0.414,2.063 0,1.065 0,0.006 L 0,0 C 0,-2.193 1.785,-3.978 3.978,-3.978 6.171,-3.978 7.956,-2.193 7.956,0 7.955,2.194 6.17,3.981 3.978,3.981 2.915,3.981 1.915,3.565 1.163,2.814" /></g><g
         style="fill:#ffffff;fill-opacity:1"
         transform="translate(139.2012,60.7021)"
         id="g160"><path
           inkscape:connector-curvature="0"
           id="path162"
           style="fill:#ffffff;fill-opacity:1;fill-rule:nonzero;stroke:none"
           d="M 0,0 C -2.341,2.435 -0.66,5.064 -0.016,5.893 0.051,5.969 0.115,6.045 0.175,6.125 0.195,6.147 0.207,6.16 0.207,6.16 l -0.005,0 c 0.506,0.683 0.784,1.504 0.782,2.369 0.002,1.057 -0.409,2.053 -1.158,2.804 -0.753,0.754 -1.753,1.171 -2.819,1.171 -2.191,0 -3.975,-1.783 -3.975,-3.977 -0.001,-0.864 0.277,-1.686 0.783,-2.367 l -0.005,0 c 0,0 0.011,-0.013 0.031,-0.034 C -6.108,6.06 -6.057,5.994 -6.001,5.93 -5.41,5.154 -3.756,2.55 -5.979,0.111 -8.6,-2.283 -11.147,0.358 -11.147,0.358 l 0,-0.005 c -0.705,0.632 -1.632,1.02 -2.651,1.02 -2.192,0 -3.977,-1.785 -3.978,-3.978 0,-1.063 0.414,-2.063 1.166,-2.815 0.752,-0.75 1.75,-1.164 2.813,-1.164 1.012,0 1.963,0.379 2.7,1.062 l 0,-0.006 c 0,0 0.014,0.014 0.036,0.039 0.026,0.025 0.055,0.048 0.081,0.073 0.025,0.025 0.047,0.053 0.072,0.08 0.632,0.601 2.772,2.273 5.027,-0.006 0.722,-0.74 1.729,-1.2 2.843,-1.2 1.066,0 2.067,0.415 2.819,1.166 0.749,0.753 1.162,1.75 1.159,2.812 0,0.976 -0.355,1.872 -0.942,2.564 L 0,0 z" /></g></g></g></svg>