<?xml version="1.0" encoding="UTF-8" standalone="no"?>
<svg
   xmlns:dc="http://purl.org/dc/elements/1.1/"
   xmlns:cc="http://creativecommons.org/ns#"
   xmlns:rdf="http://www.w3.org/1999/02/22-rdf-syntax-ns#"
   xmlns:svg="http://www.w3.org/2000/svg"
   xmlns="http://www.w3.org/2000/svg"
   xmlns:sodipodi="http://sodipodi.sourceforge.net/DTD/sodipodi-0.dtd"
   xmlns:inkscape="http://www.inkscape.org/namespaces/inkscape"
   version="1.0"
   id="Layer_1"
   x="0px"
   y="0px"
   viewBox="0 0 18 18"
   enable-background="new 0 0 24 24"
   xml:space="preserve"
   height="75"
   width="75"
   inkscape:version="0.48.5 r10040"
   sodipodi:docname="logout.svg"
   inkscape:export-filename="C:\_KatyAWebster\Inkscape\logout_40.png"
   inkscape:export-xdpi="28.647215"
   inkscape:export-ydpi="28.647215"><metadata
   id="metadata17"><rdf:RDF><cc:Work
       rdf:about=""><dc:format>image/svg+xml</dc:format><dc:type
         rdf:resource="http://purl.org/dc/dcmitype/StillImage" /><dc:title /></cc:Work></rdf:RDF></metadata><defs
   id="defs15" /><sodipodi:namedview
   pagecolor="#2b547e"
   bordercolor="#666666"
   borderopacity="1"
   objecttolerance="10"
   gridtolerance="10"
   guidetolerance="10"
   inkscape:pageopacity="0"
   inkscape:pageshadow="2"
   inkscape:window-width="1600"
   inkscape:window-height="1139"
   id="namedview13"
   showgrid="true"
   inkscape:snap-nodes="false"
   inkscape:zoom="7.1615386"
   inkscape:cx="26.189627"
   inkscape:cy="39.781219"
   inkscape:window-x="-9"
   inkscape:window-y="-9"
   inkscape:window-maximized="1"
   inkscape:current-layer="Layer_1"><inkscape:grid
     type="xygrid"
     id="grid2994"
     empspacing="5"
     visible="true"
     enabled="true"
     snapvisiblegridlinesonly="true" /></sodipodi:namedview>



<path
   sodipodi:type="arc"
   style="fill:none;stroke:#ffffff;stroke-width:1.70000005;stroke-linecap:square;stroke-linejoin:round;stroke-miterlimit:4;stroke-opacity:1;stroke-dasharray:none;stroke-dashoffset:0"
   id="path4419"
   sodipodi:cx="12.5"
   sodipodi:cy="9"
   sodipodi:rx="22.5"
   sodipodi:ry="25"
   d="M 35,9 A 22.5,25 0 1 1 -10,9 22.5,25 0 1 1 35,9 z"
   transform="matrix(0.37279889,0,0,0.335519,4.3213242,5.7979446)"
   inkscape:export-filename="C:\_KatyAWebster\Inkscape\power.png"
   inkscape:export-xdpi="103.93845"
   inkscape:export-ydpi="103.93845" /><g
   id="g3794"
   transform="matrix(0.934254,0,0,0.934254,-5.6127501,-6.949488)"
   inkscape:export-filename="C:\_KatyAWebster\Inkscape\power.png"
   inkscape:export-xdpi="103.93845"
   inkscape:export-ydpi="103.93845"><path
     sodipodi:nodetypes="sssssccsss"
     inkscape:connector-curvature="0"
     id="path3014"
     d="m 19.001413,21.912216 c 2.522629,-1.852817 3.333852,-5.610747 1.760679,-8.156197 -1.324006,-2.142287 -3.252178,-1.148401 -2.0011,1.031478 0.872154,1.519642 0.759916,3.243563 -0.292616,4.494427 -1.065135,1.26584 -2.462336,1.606052 -3.984266,0.970148 -2.080384,-0.86924 -2.974466,-3.430522 -1.758642,-5.037986 1.346474,-2.027636 -0.1641,-3.606112 -1.855682,-1.268394 -0.9717359,1.445413 -1.1046931,4.170886 -0.281159,5.763427 0.584602,1.130495 2.442145,2.678471 3.580125,2.983483 1.241465,0.332749 3.902078,-0.09689 4.832661,-0.780386 z"
     style="fill:#ffffff;fill-opacity:1" /><path
     sodipodi:nodetypes="csscc"
     inkscape:connector-curvature="0"
     id="path3010"
     d="m 16.776594,13.776793 c -0.101427,-3.648005 -0.107198,-3.195307 -0.996954,-3.195307 -0.879924,0 -0.896687,0.05357 -0.999261,3.193443 -0.123783,3.789147 0.07227,3.860681 1.179536,4.145043 1.142411,-0.446197 0.859035,-2.619751 0.816679,-4.143179 z"
     style="fill:#ffffff;fill-opacity:1" /></g></svg>