<?xml version="1.0" encoding="UTF-8" standalone="no"?>
<!-- Created with Inkscape (http://www.inkscape.org/) -->

<svg
   xmlns:dc="http://purl.org/dc/elements/1.1/"
   xmlns:cc="http://creativecommons.org/ns#"
   xmlns:rdf="http://www.w3.org/1999/02/22-rdf-syntax-ns#"
   xmlns:svg="http://www.w3.org/2000/svg"
   xmlns="http://www.w3.org/2000/svg"
   xmlns:sodipodi="http://sodipodi.sourceforge.net/DTD/sodipodi-0.dtd"
   xmlns:inkscape="http://www.inkscape.org/namespaces/inkscape"
   width="46.361412"
   height="49.008987"
   id="svg4631"
   version="1.1"
   inkscape:version="0.91 r13725"
   sodipodi:docname="notification.svg"
   inkscape:export-filename="C:\_KatyAWebster\TTHO\560x560\reminder_560.png"
   inkscape:export-xdpi="735.69598"
   inkscape:export-ydpi="735.69598">
  <defs
     id="defs4633" />
  <sodipodi:namedview
     id="base"
     pagecolor="#4c95e2"
     bordercolor="#666666"
     borderopacity="1.0"
     inkscape:pageopacity="0"
     inkscape:pageshadow="2"
     inkscape:zoom="8.5135656"
     inkscape:cx="-5.1697194"
     inkscape:cy="18.045836"
     inkscape:document-units="px"
     inkscape:current-layer="layer1"
     showgrid="true"
     inkscape:window-width="1600"
     inkscape:window-height="1178"
     inkscape:window-x="0"
     inkscape:window-y="0"
     inkscape:window-maximized="1"
     inkscape:snap-global="false"
     showborder="true"
     fit-margin-top="0"
     fit-margin-left="0"
     fit-margin-right="0"
     fit-margin-bottom="0">
    <inkscape:grid
       type="xygrid"
       id="grid4639"
       empspacing="5"
       visible="true"
       enabled="true"
       snapvisiblegridlinesonly="true"
       dotted="true"
       originx="-14.919286"
       originy="-12.693951" />
  </sodipodi:namedview>
  <metadata
     id="metadata4636">
    <rdf:RDF>
      <cc:Work
         rdf:about="">
        <dc:format>image/svg+xml</dc:format>
        <dc:type
           rdf:resource="http://purl.org/dc/dcmitype/StillImage" />
        <dc:title></dc:title>
      </cc:Work>
    </rdf:RDF>
  </metadata>
  <g
     inkscape:label="Layer 1"
     inkscape:groupmode="layer"
     id="layer1"
     transform="translate(-14.919286,-990.65924)">
    <path
       style="fill:#ffffff;fill-opacity:1"
       d="m 38.100013,990.66026 c -0.703648,0 -1.40729,0.0959 -1.900061,0.28809 -1.486324,0.57968 -2.706271,1.86207 -3.154891,3.3213 l -0.229592,0.75152 -1.076697,0.56844 c -4.59351,2.42286 -7.379895,6.47139 -7.829828,11.37719 -0.06365,0.694 -0.119801,1.7942 -0.122716,2.4453 -0.0064,1.4399 -0.171369,2.984 -0.5146,4.7775 -0.863714,4.5129 -3.231271,8.1738 -6.072272,9.3875 -2.2881,0.9776 -2.28007,0.9641 -2.28007,3.8119 0,1.8694 0.02792,2.1471 0.261259,2.5971 0.361383,0.6967 0.906005,0.9034 3.550738,1.3433 2.587059,0.4301 6.983756,0.905 9.67051,1.0708 0.05052,0 0.100054,0.01 0.150419,0.01 0.438919,0.018 0.872127,0.038 1.298374,0.055 0.02983,0 0.06658,0 0.095,0 0.117016,0 0.22407,0.01 0.324598,0.012 0.01185,0 0.02376,0.01 0.03561,0.01 5.845496,0.2072 10.560311,0.2066 15.418191,0.015 0.004,0 0.0079,0 0.01185,0 0.145269,-0.02 0.321066,-0.031 0.51856,-0.032 0.101644,0 0.217734,-0.01 0.336467,-0.01 0.399289,-0.018 0.800371,-0.035 1.203373,-0.055 0.01988,0 0.03949,-0.01 0.05938,-0.01 2.691577,-0.1689 7.046228,-0.6397 9.615094,-1.0669 3.745357,-0.6227 3.81199,-0.6918 3.81199,-3.9403 0,-2.8479 0.0081,-2.8343 -2.28007,-3.8118 -1.800574,-0.7694 -3.354658,-2.4246 -4.564101,-4.8671 -1.305624,-2.6368 -1.834041,-5.1089 -2.030686,-9.485 -0.06774,-1.5075 -0.156726,-2.9373 -0.197927,-3.1772 -0.505402,-2.9421 -1.912039,-5.6842 -3.962415,-7.71719 -1.114517,-1.10505 -2.156713,-1.85849 -3.736783,-2.70608 l -1.124201,-0.60349 -0.233551,-0.75152 c -0.451366,-1.46095 -1.665343,-2.74191 -3.150931,-3.32123 -0.492772,-0.19222 -1.196414,-0.28815 -1.900062,-0.28815 z m -7.137101,42.32784 c 0.03388,0.1611 0.06321,0.3559 0.08313,0.5529 0.198535,1.9641 1.470876,3.9413 3.241977,5.0461 0.62617,0.3906 1.698369,0.8137 2.481953,0.9812 1.292744,0.2764 3.323642,-0.038 4.698685,-0.7281 1.906068,-0.9565 3.46954,-3.2035 3.681366,-5.2992 0.01948,-0.1927 0.05013,-0.3822 0.08313,-0.5413 -4.503521,0.1648 -8.925211,0.166 -14.270236,-0.012 z"
       id="path4370"
       inkscape:connector-curvature="0"
       inkscape:export-filename="/Users/katywebster/Documents/Inkscape/Icons/Tasks and Workflow/notification_32.png"
       inkscape:export-xdpi="39.68"
       inkscape:export-ydpi="39.68" />
  </g>
</svg>
