<?xml version="1.0" encoding="UTF-8" standalone="no"?>
<!-- Created with Inkscape (http://www.inkscape.org/) -->

<svg
   xmlns:dc="http://purl.org/dc/elements/1.1/"
   xmlns:cc="http://creativecommons.org/ns#"
   xmlns:rdf="http://www.w3.org/1999/02/22-rdf-syntax-ns#"
   xmlns:svg="http://www.w3.org/2000/svg"
   xmlns="http://www.w3.org/2000/svg"
   xmlns:sodipodi="http://sodipodi.sourceforge.net/DTD/sodipodi-0.dtd"
   xmlns:inkscape="http://www.inkscape.org/namespaces/inkscape"
   width="98.690002"
   height="98.690002"
   id="svg3888"
   version="1.1"
   inkscape:version="0.48.5 r10040"
   sodipodi:docname="patient_white.svg"
   inkscape:export-filename="C:\_KatyAWebster\Inkscape\Icons\Appointments\patient_48.png"
   inkscape:export-xdpi="29.700001"
   inkscape:export-ydpi="29.700001">
  <defs
     id="defs3890" />
  <sodipodi:namedview
     id="base"
     pagecolor="#737373"
     bordercolor="#666666"
     borderopacity="1.0"
     inkscape:pageopacity="0"
     inkscape:pageshadow="2"
     inkscape:zoom="3.319853"
     inkscape:cx="10.24142"
     inkscape:cy="-2.6893154"
     inkscape:document-units="px"
     inkscape:current-layer="layer1"
     showgrid="false"
     inkscape:window-width="1600"
     inkscape:window-height="1139"
     inkscape:window-x="-9"
     inkscape:window-y="-9"
     inkscape:window-maximized="1" />
  <metadata
     id="metadata3893">
    <rdf:RDF>
      <cc:Work
         rdf:about="">
        <dc:format>image/svg+xml</dc:format>
        <dc:type
           rdf:resource="http://purl.org/dc/dcmitype/StillImage" />
        <dc:title></dc:title>
      </cc:Work>
    </rdf:RDF>
  </metadata>
  <g
     inkscape:label="Layer 1"
     inkscape:groupmode="layer"
     id="layer1"
     transform="translate(0,-953.67218)">
    <path
       inkscape:export-ydpi="42.349998"
       inkscape:export-xdpi="42.349998"
       inkscape:export-filename="C:\_KatyAWebster\Inkscape\Icons\Patient Services\patient_white_32.png"
       inkscape:connector-curvature="0"
       id="path2983"
       d="m 15.614134,1029.5623 c 0,-5.1031 8.801269,-13.4292 14.195,-13.4292 2.46441,0 6.508406,-2.2528 8.986656,-5.0062 4.33363,-4.8141 4.34151,-5.3126 0.20629,-13.03256 -6.370396,-11.893 -4.569435,-25.95748 3.93345,-30.71828 15.71911,-8.8007 26.96275,10.9673 17.56406,30.88048 -3.75367,7.95286 -3.74,8.79016 0.21527,13.18446 2.32291,2.5807 6.23982,4.6921 8.70423,4.6921 5.39373,0 14.19503,8.3261 14.19503,13.4292 0,3.0809 -5.39683,3.6624 -34.00001,3.6624 -28.603178,0 -33.999976,-0.5815 -33.999976,-3.6624 z"
       style="fill:#ffffff;fill-opacity:1" />
    <path
       transform="matrix(2.1100867,0,0,1.899078,23.059131,986.24494)"
       d="M 35,9 A 22.5,25 0 1 1 -10,9 22.5,25 0 1 1 35,9 z"
       sodipodi:ry="25"
       sodipodi:rx="22.5"
       sodipodi:cy="9"
       sodipodi:cx="12.5"
       id="path4417-4-1"
       style="fill:none;stroke:#ffffff;stroke-width:1.25242066;stroke-linecap:square;stroke-linejoin:round;stroke-miterlimit:4;stroke-opacity:1;stroke-dasharray:none;stroke-dashoffset:0"
       sodipodi:type="arc"
       inkscape:export-filename="C:\_KatyAWebster\Inkscape\Icons\Appointments\hamburger_32.png"
       inkscape:export-xdpi="48.740002"
       inkscape:export-ydpi="48.740002" />
  </g>
</svg>
