<?xml version="1.0" encoding="UTF-8" standalone="no"?>
<svg
   xmlns:dc="http://purl.org/dc/elements/1.1/"
   xmlns:cc="http://creativecommons.org/ns#"
   xmlns:rdf="http://www.w3.org/1999/02/22-rdf-syntax-ns#"
   xmlns:svg="http://www.w3.org/2000/svg"
   xmlns="http://www.w3.org/2000/svg"
   xmlns:sodipodi="http://sodipodi.sourceforge.net/DTD/sodipodi-0.dtd"
   xmlns:inkscape="http://www.inkscape.org/namespaces/inkscape"
   version="1.1"
   id="Layer_1"
   x="0px"
   y="0px"
   width="139.15323"
   height="139.15323"
   viewBox="0 0 139.15323 139.15323"
   enable-background="new 0 0 100 100"
   xml:space="preserve"
   inkscape:version="0.91 r13725"
   sodipodi:docname="pin.svg"><metadata
     id="metadata9"><rdf:RDF><cc:Work
         rdf:about=""><dc:format>image/svg+xml</dc:format><dc:type
           rdf:resource="http://purl.org/dc/dcmitype/StillImage" /><dc:title></dc:title></cc:Work></rdf:RDF></metadata><defs
     id="defs7" /><sodipodi:namedview
     pagecolor="#ffffff"
     bordercolor="#666666"
     borderopacity="1"
     objecttolerance="10"
     gridtolerance="10"
     guidetolerance="10"
     inkscape:pageopacity="0"
     inkscape:pageshadow="2"
     inkscape:window-width="1090"
     inkscape:window-height="958"
     id="namedview5"
     showgrid="false"
     inkscape:zoom="0.675"
     inkscape:cx="-226.85496"
     inkscape:cy="45.280352"
     inkscape:window-x="0"
     inkscape:window-y="0"
     inkscape:window-maximized="0"
     inkscape:current-layer="Layer_1"
     fit-margin-top="0"
     fit-margin-left="0"
     fit-margin-right="0"
     fit-margin-bottom="0" /><path
     d="m 76.758753,99.261688 c 1.036064,-5.734284 -2.512465,-8.684964 -1.99551,-15.780904 0.256559,-3.520792 12.076664,-12.685816 12.076664,-12.685816 0,0 9.993998,-8.264427 13.728473,-7.854928 2.57785,0.286007 4.96478,2.504436 7.57827,2.815699 0.0214,0.0059 0.0383,0.0078 0.0597,0.0073 0.57074,0.06269 1.14946,0.02027 1.74381,-0.144926 0.0656,-0.01414 0.12211,-0.01718 0.18127,-0.03771 0.44024,-0.141576 0.89142,-0.389364 1.34676,-0.694317 0.11734,-0.07745 0.25131,-0.09902 0.36053,-0.18661 0.0195,-0.01564 0.0277,-0.03892 0.0455,-0.05831 0.0322,-0.02065 0.0629,-0.02866 0.0926,-0.05243 0.0725,-0.05819 0.0648,-0.142981 0.12546,-0.203183 1.85813,-1.768497 2.13906,-4.656347 0.50606,-6.692372 L 93.076053,33.340412 c -1.633004,-2.036025 -4.513605,-2.389433 -6.642025,-0.957934 -0.07116,0.04554 -0.15287,0.01878 -0.226199,0.07759 -0.02964,0.02378 -0.04413,0.05206 -0.07127,0.07896 -0.02278,0.01315 -0.0473,0.01614 -0.0668,0.03179 -0.109212,0.08759 -0.158716,0.214469 -0.259795,0.312205 -0.396366,0.376875 -0.736965,0.764144 -0.970726,1.163149 -0.03289,0.0533 -0.0475,0.1086 -0.07553,0.169543 -0.291522,0.542757 -0.457932,1.099256 -0.520624,1.669994 -0.0051,0.02078 -0.007,0.03765 -0.0065,0.05904 -0.264247,2.619367 1.383939,5.430308 1.103555,8.008777 -0.410279,3.7351 -10.647663,11.696073 -10.647663,11.696073 0,0 -11.512274,9.548826 -15.004809,9.035013 -7.038334,-1.034899 -9.148384,-5.139319 -14.970212,-5.371914 -4.123509,-0.164131 -8.142654,3.695272 -8.142654,3.695272 l 16.061627,20.025588 -17.64633,14.153327 -9.517876,10.095125 0.285932,0.3565 11.921082,-7.09881 17.64633,-14.153332 16.058499,20.021692 c 0,0 4.639186,-3.08634 5.37468,-7.146372 z"
     id="path3"
     style="fill:#20335e;fill-opacity:1"
     inkscape:connector-curvature="0" /><circle
     r="68.611115"
     cy="69.576614"
     cx="69.576614"
     id="path4277"
     style="fill:none;stroke:#20335e;stroke-width:1.93100011;stroke-miterlimit:4;stroke-dasharray:none;stroke-opacity:1"
     inkscape:export-filename="/Users/katywebster/Documents/Inkscape/Icons/Appointments/add_50.png"
     inkscape:export-xdpi="58.509998"
     inkscape:export-ydpi="58.509998" /></svg>