<?xml version="1.0" encoding="UTF-8" standalone="no"?>
<!-- Generator: Adobe Illustrator 16.0.0, SVG Export Plug-In . SVG Version: 6.00 Build 0)  -->

<svg
   xmlns:dc="http://purl.org/dc/elements/1.1/"
   xmlns:cc="http://creativecommons.org/ns#"
   xmlns:rdf="http://www.w3.org/1999/02/22-rdf-syntax-ns#"
   xmlns:svg="http://www.w3.org/2000/svg"
   xmlns="http://www.w3.org/2000/svg"
   xmlns:sodipodi="http://sodipodi.sourceforge.net/DTD/sodipodi-0.dtd"
   xmlns:inkscape="http://www.inkscape.org/namespaces/inkscape"
   version="1.1"
   id="Layer_1"
   x="0px"
   y="0px"
   width="75"
   height="75"
   viewBox="0.089 19.26 75 75"
   enable-background="new 0.089 19.26 100 80.555"
   xml:space="preserve"
   inkscape:version="0.48.5 r10040"
   sodipodi:docname="reception_bell.svg"><metadata
   id="metadata12"><rdf:RDF><cc:Work
       rdf:about=""><dc:format>image/svg+xml</dc:format><dc:type
         rdf:resource="http://purl.org/dc/dcmitype/StillImage" /><dc:title></dc:title></cc:Work></rdf:RDF></metadata><defs
   id="defs10">
	
	
</defs><sodipodi:namedview
   pagecolor="#5e72be"
   bordercolor="#666666"
   borderopacity="1"
   objecttolerance="10"
   gridtolerance="10"
   guidetolerance="10"
   inkscape:pageopacity="0"
   inkscape:pageshadow="2"
   inkscape:window-width="1600"
   inkscape:window-height="1139"
   id="namedview8"
   showgrid="false"
   inkscape:zoom="6.02"
   inkscape:cx="1.6774829"
   inkscape:cy="15.717254"
   inkscape:window-x="-9"
   inkscape:window-y="-9"
   inkscape:window-maximized="1"
   inkscape:current-layer="Layer_1"
   width="75px" />
<g
   id="g3753"
   transform="matrix(1.0720517,0,0,1.0720517,-3.1160266,-5.6649634)"><path
     style="fill:#ffffff;fill-opacity:1"
     sodipodi:nodetypes="csssscc"
     d="m 3.4073789,83.12925 0,-2.346761 c 0,-3.26181 2.66561,-4.199802 5.9253465,-4.199802 l 57.3133876,0 c 3.260427,0 5.925346,0.937992 5.925346,4.199802 l 0,2.346761 z"
     id="path4"
     inkscape:connector-curvature="0" /><path
     style="fill:#ffffff;fill-opacity:1"
     sodipodi:nodetypes="ccccsssccccccc"
     d="m 45.172056,43.798701 0,-5.166262 -5.123947,0 0,-2.888785 4.949431,0 c 2.828148,0 -3.166364,-6.946792 -7.070715,-6.946792 -3.909885,0 -9.898862,6.946792 -7.070715,6.946792 l 4.949432,0 0,2.888785 -5.123947,0 0,5.166954 C 17.955276,47.037687 8.5940454,60.477979 8.5940454,74.618717 l 58.7914386,0 c 0,-14.140738 -9.487111,-27.583797 -22.213428,-30.820016 z"
     id="path6"
     inkscape:connector-curvature="0" /></g>
</svg>