<?xml version="1.0" encoding="UTF-8" standalone="no"?>
<svg
   xmlns:dc="http://purl.org/dc/elements/1.1/"
   xmlns:cc="http://creativecommons.org/ns#"
   xmlns:rdf="http://www.w3.org/1999/02/22-rdf-syntax-ns#"
   xmlns:svg="http://www.w3.org/2000/svg"
   xmlns="http://www.w3.org/2000/svg"
   xmlns:sodipodi="http://sodipodi.sourceforge.net/DTD/sodipodi-0.dtd"
   xmlns:inkscape="http://www.inkscape.org/namespaces/inkscape"
   version="1.1"
   x="0px"
   y="0px"
   width="74.099998"
   height="74.097778"
   viewBox="5 -10 74.099998 100.032"
   enable-background="new 0 0 100 100"
   xml:space="preserve"
   id="svg2"
   inkscape:version="0.91 r13725"
   sodipodi:docname="tracking.svg"
   inkscape:export-filename="/Users/katywebster/Documents/Inkscape/Icons/Tasks and Workflow/tracking_32.png"
   inkscape:export-xdpi="38.869999"
   inkscape:export-ydpi="38.869999"><metadata
     id="metadata124"><rdf:RDF><cc:Work
         rdf:about=""><dc:format>image/svg+xml</dc:format><dc:type
           rdf:resource="http://purl.org/dc/dcmitype/StillImage" /><dc:title /></cc:Work></rdf:RDF></metadata><defs
     id="defs122" /><sodipodi:namedview
     pagecolor="#ffffff"
     bordercolor="#666666"
     borderopacity="1"
     objecttolerance="10"
     gridtolerance="10"
     guidetolerance="10"
     inkscape:pageopacity="0"
     inkscape:pageshadow="2"
     inkscape:window-width="1335"
     inkscape:window-height="1074"
     id="namedview120"
     showgrid="false"
     inkscape:zoom="8.52"
     inkscape:cx="38.259653"
     inkscape:cy="36.225206"
     inkscape:window-x="0"
     inkscape:window-y="0"
     inkscape:window-maximized="0"
     inkscape:current-layer="svg2"
     fit-margin-top="0"
     fit-margin-left="0"
     fit-margin-right="0"
     fit-margin-bottom="0" /><text
     style="font-size:6.1578002px;fill:#000000;font-family:Helvetica-Bold"
     id="text17"
     font-size="6.1578"
     x="-186.4015"
     y="0.46599999">Reminders</text>
<line
     style="fill:#000000;stroke:#ffffff;stroke-miterlimit:10"
     id="line19"
     y2="-24.534"
     x2="10.0985"
     y1="-24.534"
     x1="0.098500378"
     stroke-miterlimit="10" /><line
     style="fill:#000000;stroke:#ffffff;stroke-miterlimit:10"
     id="line21"
     y2="6.4660001"
     x2="-169.9015"
     y1="6.4660001"
     x1="-186.9015"
     stroke-miterlimit="10" /><g
     id="g23"
     transform="translate(-7.9014996,-10.034)"><g
       id="g25"><g
         id="g27"><rect
           style="fill:#000000"
           id="rect29"
           height="8.6420002"
           width="8.7209997"
           y="31.318001"
           x="-170.802" /><path
           style="fill:#000000"
           inkscape:connector-curvature="0"
           id="path31"
           d="m -164.455,42.312 h 4.747 v -4.703 h -4.747 v 4.703 z m 5.189,0.437 h -5.63 V 37.17 h 5.63 v 5.579 l 0,0 z m -6.955,1.313 h 8.279 v -8.203 h -8.279 v 8.203 l 0,0 z m 8.721,0.438 h -9.163 v -9.079 h 9.163 V 44.5 l 0,0 z" /><polygon
           style="fill:#000000"
           id="polygon33"
           points="-166.149,44.133 -166.292,43.991 -158.013,35.787 -157.871,35.929 " /></g></g></g><rect
     style="fill:none"
     id="rect35"
     height="32.5"
     width="35"
     y="47.966"
     x="-186.9015" /><text
     id="text37"
     x="-186.9015"
     y="50.123199"><tspan
       style="font-size:3px;fill:#000000;font-family:Helvetica-Bold"
       id="tspan39"
       font-size="3"
       y="50.123199"
       x="-186.9015">Strokes</tspan><tspan
       style="font-size:2.4000001px;fill:#000000;font-family:Helvetica"
       id="tspan41"
       font-size="2.4"
       y="55.123203"
       x="-186.9015">Try to keep strokes at 4px</tspan><tspan
       style="font-size:2.4000001px;fill:#000000;font-family:Helvetica"
       id="tspan43"
       font-size="2.4"
       y="60.123203"
       x="-186.9015">Minimum stroke weight is 2px</tspan><tspan
       style="font-size:2.4000001px;fill:#000000;font-family:Helvetica"
       id="tspan45"
       font-size="2.4"
       y="64.623207"
       x="-186.9015">For thicker strokes use even </tspan><tspan
       style="font-size:2.4000001px;fill:#000000;font-family:Helvetica"
       id="tspan47"
       font-size="2.4"
       y="67.623207"
       x="-186.9015">numbers: 6px, 8px etc.</tspan><tspan
       style="font-size:2.4000001px;fill:#000000;font-family:Helvetica-Bold"
       id="tspan49"
       font-size="2.4"
       y="72.123207"
       x="-186.9015">Remember to expand strokes </tspan><tspan
       style="font-size:2.4000001px;fill:#000000;font-family:Helvetica-Bold"
       id="tspan51"
       font-size="2.4"
       y="75.123207"
       x="-186.9015">before saving as an SVG </tspan></text>
<rect
     style="fill:none"
     id="rect53"
     height="32.5"
     width="35"
     y="47.966"
     x="-144.4015" /><rect
     style="fill:none"
     id="rect67"
     height="32.5"
     width="35"
     y="47.966"
     x="-101.9015" /><rect
     style="fill:none"
     id="rect77"
     height="32.5"
     width="35"
     y="47.966"
     x="-57.901497" /><rect
     style="fill:#000000;stroke:#ffffff;stroke-miterlimit:10"
     id="rect105"
     height="30"
     width="30"
     stroke-miterlimit="10"
     y="12.466"
     x="-186.4015" /><g
     id="Your_Icon"
     transform="matrix(-1,0,0,-1,92.0015,90.066)"
     style="fill:#60636a;fill-opacity:1"><path
       d="m 49.948,0.034 c -27.623,0 -50.01,22.39 -50.014,50.011 0.004,27.628 22.392,50.017 50.014,50.021 C 77.575,100.062 99.962,77.673 99.969,50.045 99.962,22.424 77.575,0.034 49.948,0.034 z m 46.951,48.501 h -11.56 c -0.277,-6.513 -2.288,-12.567 -5.615,-17.708 0.875,-1.452 1.406,-3.131 1.406,-4.946 0,-5.327 -4.318,-9.645 -9.644,-9.645 -2.22,0 -4.236,0.778 -5.865,2.036 C 61.318,16.146 56.533,14.876 51.46,14.661 V 3.098 c 24.749,0.826 44.614,20.696 45.439,45.437 z m -48.461,3.027 v 11.43 C 42.451,62.292 37.711,57.552 37.01,51.562 H 48.438 z M 37.01,48.535 c 0.701,-5.99 5.44,-10.728 11.428,-11.431 V 48.535 H 37.01 z m 14.45,3.027 H 62.892 C 62.189,57.549 57.45,62.291 51.46,62.991 V 51.562 z m 0,-3.027 V 37.104 c 5.989,0.706 10.73,5.44 11.432,11.431 H 51.46 z M 48.438,34.061 C 40.776,34.779 34.682,40.872 33.962,48.536 H 17.585 C 18.39,31.834 31.738,18.485 48.438,17.687 V 34.061 z M 33.962,51.562 c 0.722,7.662 6.814,13.757 14.476,14.473 V 82.41 C 31.738,81.612 18.388,68.264 17.585,51.562 H 33.962 z M 51.46,66.035 C 59.126,65.319 65.219,59.226 65.935,51.562 H 82.31 C 81.509,68.263 68.163,81.612 51.46,82.41 V 66.035 z m 14.475,-17.5 C 65.221,40.871 59.126,34.778 51.46,34.06 V 17.689 c 4.261,0.201 8.299,1.212 11.975,2.898 -1,1.521 -1.593,3.336 -1.593,5.293 0,5.325 4.319,9.643 9.645,9.643 2.351,0 4.479,-0.877 6.154,-2.275 2.735,4.497 4.401,9.699 4.669,15.287 H 65.935 z M 48.438,3.098 V 14.661 C 30.063,15.437 15.338,30.159 14.561,48.535 H 3 C 3.825,23.791 23.69,3.922 48.438,3.098 z M 3,51.562 h 11.561 c 0.777,18.377 15.503,33.099 33.877,33.874 V 96.998 C 23.692,96.174 3.827,76.31 3,51.562 z M 51.46,96.998 V 85.437 C 69.836,84.662 84.559,69.937 85.339,51.563 H 96.9 C 96.073,76.31 76.209,96.174 51.46,96.998 z"
       id="path114"
       inkscape:connector-curvature="0"
       style="fill:#60636a;fill-opacity:1" /></g></svg>