<?xml version="1.0" encoding="UTF-8" standalone="no"?>
<svg
   xmlns:dc="http://purl.org/dc/elements/1.1/"
   xmlns:cc="http://creativecommons.org/ns#"
   xmlns:rdf="http://www.w3.org/1999/02/22-rdf-syntax-ns#"
   xmlns:svg="http://www.w3.org/2000/svg"
   xmlns="http://www.w3.org/2000/svg"
   xmlns:sodipodi="http://sodipodi.sourceforge.net/DTD/sodipodi-0.dtd"
   xmlns:inkscape="http://www.inkscape.org/namespaces/inkscape"
   version="1.1"
   x="0px"
   y="0px"
   width="76.931"
   height="76.931007"
   viewBox="5 -10 76.930997 103.85686"
   enable-background="new 0 0 100 100"
   xml:space="preserve"
   id="svg2"
   inkscape:version="0.91 r13725"
   sodipodi:docname="tracking.svg"
   inkscape:export-filename="/Users/katywebster/Documents/Inkscape/Icons/Tasks and Workflow/tracking_32.png"
   inkscape:export-xdpi="38.869999"
   inkscape:export-ydpi="38.869999"><metadata
     id="metadata124"><rdf:RDF><cc:Work
         rdf:about=""><dc:format>image/svg+xml</dc:format><dc:type
           rdf:resource="http://purl.org/dc/dcmitype/StillImage" /><dc:title></dc:title></cc:Work></rdf:RDF></metadata><defs
     id="defs122" /><sodipodi:namedview
     pagecolor="#ffffff"
     bordercolor="#666666"
     borderopacity="1"
     objecttolerance="10"
     gridtolerance="10"
     guidetolerance="10"
     inkscape:pageopacity="0"
     inkscape:pageshadow="2"
     inkscape:window-width="1335"
     inkscape:window-height="1074"
     id="namedview120"
     showgrid="false"
     inkscape:zoom="1.065"
     inkscape:cx="0.37556424"
     inkscape:cy="154.9592"
     inkscape:window-x="0"
     inkscape:window-y="0"
     inkscape:window-maximized="0"
     inkscape:current-layer="svg2"
     fit-margin-top="0"
     fit-margin-left="0"
     fit-margin-right="0"
     fit-margin-bottom="0" /><g
     id="Your_Icon"
     transform="matrix(-0.632523,0,0,-0.632523,75.06098,73.586204)"
     style="fill:#20335e;fill-opacity:1"><path
       d="m 49.948,0.034 c -27.623,0 -50.01,22.39 -50.014,50.011 0.004,27.628 22.392,50.017 50.014,50.021 C 77.575,100.062 99.962,77.673 99.969,50.045 99.962,22.424 77.575,0.034 49.948,0.034 Z m 46.951,48.501 -11.56,0 c -0.277,-6.513 -2.288,-12.567 -5.615,-17.708 0.875,-1.452 1.406,-3.131 1.406,-4.946 0,-5.327 -4.318,-9.645 -9.644,-9.645 -2.22,0 -4.236,0.778 -5.865,2.036 -4.303,-2.126 -9.088,-3.396 -14.161,-3.611 l 0,-11.563 c 24.749,0.826 44.614,20.696 45.439,45.437 z m -48.461,3.027 0,11.43 c -5.987,-0.7 -10.727,-5.44 -11.428,-11.43 l 11.428,0 z M 37.01,48.535 c 0.701,-5.99 5.44,-10.728 11.428,-11.431 l 0,11.431 -11.428,0 z m 14.45,3.027 11.432,0 C 62.189,57.549 57.45,62.291 51.46,62.991 l 0,-11.429 z m 0,-3.027 0,-11.431 c 5.989,0.706 10.73,5.44 11.432,11.431 l -11.432,0 z M 48.438,34.061 c -7.662,0.718 -13.756,6.811 -14.476,14.475 l -16.377,0 C 18.39,31.834 31.738,18.485 48.438,17.687 l 0,16.374 z M 33.962,51.562 c 0.722,7.662 6.814,13.757 14.476,14.473 l 0,16.375 C 31.738,81.612 18.388,68.264 17.585,51.562 l 16.377,0 z M 51.46,66.035 c 7.666,-0.716 13.759,-6.809 14.475,-14.473 l 16.375,0 C 81.509,68.263 68.163,81.612 51.46,82.41 l 0,-16.375 z m 14.475,-17.5 C 65.221,40.871 59.126,34.778 51.46,34.06 l 0,-16.371 c 4.261,0.201 8.299,1.212 11.975,2.898 -1,1.521 -1.593,3.336 -1.593,5.293 0,5.325 4.319,9.643 9.645,9.643 2.351,0 4.479,-0.877 6.154,-2.275 2.735,4.497 4.401,9.699 4.669,15.287 l -16.375,0 z M 48.438,3.098 l 0,11.563 C 30.063,15.437 15.338,30.159 14.561,48.535 L 3,48.535 C 3.825,23.791 23.69,3.922 48.438,3.098 Z M 3,51.562 l 11.561,0 c 0.777,18.377 15.503,33.099 33.877,33.874 l 0,11.562 C 23.692,96.174 3.827,76.31 3,51.562 Z m 48.46,45.436 0,-11.561 c 18.376,-0.775 33.099,-15.5 33.879,-33.874 l 11.561,0 C 96.073,76.31 76.209,96.174 51.46,96.998 Z"
       id="path114"
       inkscape:connector-curvature="0"
       style="fill:#20335e;fill-opacity:1" /></g><circle
     r="50.625004"
     cy="41.928429"
     cx="43.465504"
     id="path4277"
     style="fill:none;stroke:#20335e;stroke-width:2.60684991;stroke-miterlimit:4;stroke-dasharray:none;stroke-opacity:1"
     inkscape:export-filename="/Users/katywebster/Documents/Inkscape/Icons/Appointments/add_50.png"
     inkscape:export-xdpi="58.509998"
     inkscape:export-ydpi="58.509998" /></svg>