<?xml version="1.0" encoding="UTF-8" standalone="no"?>
<!-- Created with Inkscape (http://www.inkscape.org/) -->

<svg
   xmlns:dc="http://purl.org/dc/elements/1.1/"
   xmlns:cc="http://creativecommons.org/ns#"
   xmlns:rdf="http://www.w3.org/1999/02/22-rdf-syntax-ns#"
   xmlns:svg="http://www.w3.org/2000/svg"
   xmlns="http://www.w3.org/2000/svg"
   xmlns:sodipodi="http://sodipodi.sourceforge.net/DTD/sodipodi-0.dtd"
   xmlns:inkscape="http://www.inkscape.org/namespaces/inkscape"
   width="75"
   height="75"
   id="svg4631"
   version="1.1"
   inkscape:version="0.48.5 r10040"
   sodipodi:docname="New document 2">
  <defs
     id="defs4633" />
  <sodipodi:namedview
     id="base"
     pagecolor="#6c27ff"
     bordercolor="#666666"
     borderopacity="1.0"
     inkscape:pageopacity="0"
     inkscape:pageshadow="2"
     inkscape:zoom="6.02"
     inkscape:cx="47.878175"
     inkscape:cy="22.405719"
     inkscape:document-units="px"
     inkscape:current-layer="layer1"
     showgrid="true"
     inkscape:window-width="1600"
     inkscape:window-height="1139"
     inkscape:window-x="-9"
     inkscape:window-y="-9"
     inkscape:window-maximized="1"
     inkscape:snap-global="false">
    <inkscape:grid
       type="xygrid"
       id="grid4639"
       empspacing="5"
       visible="true"
       enabled="true"
       snapvisiblegridlinesonly="true"
       dotted="true" />
  </sodipodi:namedview>
  <metadata
     id="metadata4636">
    <rdf:RDF>
      <cc:Work
         rdf:about="">
        <dc:format>image/svg+xml</dc:format>
        <dc:type
           rdf:resource="http://purl.org/dc/dcmitype/StillImage" />
        <dc:title></dc:title>
      </cc:Work>
    </rdf:RDF>
  </metadata>
  <g
     inkscape:label="Layer 1"
     inkscape:groupmode="layer"
     id="layer1"
     transform="translate(0,-977.36218)">
    <path
       transform="matrix(1.4783983,0,0,1.3305584,18.520022,1003.6511)"
       d="M 35,9 A 22.5,25 0 1 1 -10,9 22.5,25 0 1 1 35,9 z"
       sodipodi:ry="25"
       sodipodi:rx="22.5"
       sodipodi:cy="9"
       sodipodi:cx="12.5"
       id="path4417-4"
       style="fill:none;stroke:#ffffff;stroke-width:1.78755367;stroke-linecap:square;stroke-linejoin:round;stroke-miterlimit:4;stroke-opacity:1;stroke-dasharray:none;stroke-dashoffset:0"
       sodipodi:type="arc"
       inkscape:export-filename="C:\_KatyAWebster\Inkscape\Icons\Appointments\hamburger_32.png"
       inkscape:export-xdpi="48.740002"
       inkscape:export-ydpi="48.740002" />
    <g
       id="g226"
       transform="matrix(0.47898646,0,0,-0.47898646,59.512364,1009.3993)">
      <path
         d="m 0,0 -34,0 0,34 c 0,1.657 -1.343,3 -3,3 l -21,0 c -1.657,0 -3,-1.343 -3,-3 l 0,-34 -33,0 c -1.657,0 -3,-1.343 -3,-3 l 0,-21 c 0,-1.657 1.343,-3 3,-3 l 33,0 0,-33 c 0,-1.657 1.343,-3 3,-3 l 21,0 c 1.657,0 3,1.343 3,3 l 0,33 34,0 c 1.657,0 3,1.343 3,3 L 3,-3 C 3,-1.343 1.657,0 0,0"
         style="fill:#ffffff;fill-opacity:1;fill-rule:nonzero;stroke:none"
         id="path228"
         inkscape:connector-curvature="0" />
    </g>
  </g>
</svg>
