<?xml version="1.0" encoding="UTF-8" standalone="no"?>
<!-- Created with Inkscape (http://www.inkscape.org/) -->

<svg
   xmlns:dc="http://purl.org/dc/elements/1.1/"
   xmlns:cc="http://creativecommons.org/ns#"
   xmlns:rdf="http://www.w3.org/1999/02/22-rdf-syntax-ns#"
   xmlns:svg="http://www.w3.org/2000/svg"
   xmlns="http://www.w3.org/2000/svg"
   xmlns:sodipodi="http://sodipodi.sourceforge.net/DTD/sodipodi-0.dtd"
   xmlns:inkscape="http://www.inkscape.org/namespaces/inkscape"
   id="svg2"
   version="1.1"
   inkscape:version="0.48.5 r10040"
   width="16"
   height="16"
   sodipodi:docname="prescriptionbottle.svg"
   inkscape:export-filename="C:\_KatyAWebster\TTHO\560x560\prescription_560.png"
   inkscape:export-xdpi="3428.3855"
   inkscape:export-ydpi="3428.3855">
  <metadata
     id="metadata8">
    <rdf:RDF>
      <cc:Work
         rdf:about="">
        <dc:format>image/svg+xml</dc:format>
        <dc:type
           rdf:resource="http://purl.org/dc/dcmitype/StillImage" />
        <dc:title />
      </cc:Work>
    </rdf:RDF>
  </metadata>
  <defs
     id="defs6" />
  <sodipodi:namedview
     pagecolor="#1432ff"
     bordercolor="#666666"
     borderopacity="1"
     objecttolerance="10"
     gridtolerance="10"
     guidetolerance="10"
     inkscape:pageopacity="0"
     inkscape:pageshadow="2"
     inkscape:window-width="1600"
     inkscape:window-height="1139"
     id="namedview4"
     showgrid="false"
     showguides="true"
     inkscape:guide-bbox="true"
     inkscape:snap-global="false"
     inkscape:zoom="28.8125"
     inkscape:cx="7.9488792"
     inkscape:cy="11.638616"
     inkscape:window-x="-9"
     inkscape:window-y="-9"
     inkscape:window-maximized="1"
     inkscape:current-layer="svg2" />
  <path
     style="fill:#20335e;fill-opacity:1;stroke:none"
     d="m 3.365219,1.8564964 c 3.003482,0.105502 6.010462,0.086736 9.014879,0.025714 0.892805,-0.16282 0.806743,-1.56080555 -0.102006,-1.6319221 C 9.352756,0.1567578 6.421893,0.11479317 3.497608,0.2575843 2.762008,0.4736109 2.692418,1.5391589 3.365219,1.8564966 z"
     id="path3757"
     inkscape:connector-curvature="0" />
  <path
     style="fill:#20335e;fill-opacity:1;stroke:none"
     d="m 3.187145,4.6988082 c 0,2.5856829 0,5.1713636 0,7.7570458 3.225026,0 6.450052,0 9.675077,0 0,-2.5856822 0,-5.1713629 0,-7.7570458 -3.225025,0 -6.450051,0 -9.675077,0 z m 4.211503,0.870303 c 0.44265,0 0.885301,0 1.327951,0 0,0.8324636 0,1.6649273 0,2.4973909 0.758831,0 1.51766,0 2.276491,0 0,0.3910056 0,0.7820113 0,1.173017 -0.758831,0 -1.51766,0 -2.276491,0 0,0.7946209 0,1.5892459 0,2.3838699 -0.44265,0 -0.885301,0 -1.327951,0 0,-0.794624 0,-1.589249 0,-2.3838699 -0.771477,0 -1.542953,0 -2.31443,0 0,-0.3910057 0,-0.7820114 0,-1.173017 0.771477,0 1.542953,0 2.31443,0 0,-0.8324636 0,-1.6649273 0,-2.4973909 z"
     id="path3759"
     inkscape:connector-curvature="0" />
  <rect
     style="fill:none;stroke:#20335e;stroke-width:0.89999998;stroke-linecap:square;stroke-linejoin:round;stroke-miterlimit:4;stroke-opacity:1;stroke-dasharray:none;stroke-dashoffset:0"
     id="rect2986"
     width="8.9826107"
     height="14.333458"
     x="3.4622278"
     y="1.1518902"
     ry="2.8222916"
     rx="2.6995833" />
</svg>
