<?xml version="1.0" encoding="UTF-8" standalone="no"?>
<!-- Created with Inkscape (http://www.inkscape.org/) -->

<svg
   xmlns:dc="http://purl.org/dc/elements/1.1/"
   xmlns:cc="http://creativecommons.org/ns#"
   xmlns:rdf="http://www.w3.org/1999/02/22-rdf-syntax-ns#"
   xmlns:svg="http://www.w3.org/2000/svg"
   xmlns="http://www.w3.org/2000/svg"
   xmlns:sodipodi="http://sodipodi.sourceforge.net/DTD/sodipodi-0.dtd"
   xmlns:inkscape="http://www.inkscape.org/namespaces/inkscape"
   id="svg2"
   version="1.1"
   inkscape:version="0.48.5 r10040"
   width="180"
   height="180"
   xml:space="preserve"
   sodipodi:docname="task_pad.svg"
   inkscape:export-filename="C:\_KatyAWebster\TTHO\task_128.png"
   inkscape:export-xdpi="70.811485"
   inkscape:export-ydpi="70.811485"><metadata
     id="metadata8"><rdf:RDF><cc:Work
         rdf:about=""><dc:format>image/svg+xml</dc:format><dc:type
           rdf:resource="http://purl.org/dc/dcmitype/StillImage" /><dc:title></dc:title></cc:Work></rdf:RDF></metadata><defs
     id="defs6" /><sodipodi:namedview
     pagecolor="#ffffff"
     bordercolor="#666666"
     borderopacity="1"
     objecttolerance="10"
     gridtolerance="10"
     guidetolerance="10"
     inkscape:pageopacity="0"
     inkscape:pageshadow="2"
     inkscape:window-width="1600"
     inkscape:window-height="1139"
     id="namedview4"
     showgrid="false"
     inkscape:zoom="3.5473191"
     inkscape:cx="76.943611"
     inkscape:cy="97.372453"
     inkscape:window-x="-9"
     inkscape:window-y="-9"
     inkscape:window-maximized="1"
     inkscape:current-layer="g10" /><g
     id="g10"
     inkscape:groupmode="layer"
     inkscape:label="task_completed"
     transform="matrix(1.25,0,0,-1.25,0,180)"><path
       style="fill:#20355e;fill-opacity:1;fill-rule:nonzero;stroke:none"
       d="M 29.5625 20.15625 C 25.814317 20.15625 22.8125 23.189313 22.8125 26.9375 L 22.8125 163.9375 C 22.8125 167.68568 25.814318 170.6875 29.5625 170.6875 L 152.75 170.6875 C 156.49818 170.6875 159.53125 167.68568 159.53125 163.9375 L 159.53125 26.9375 C 159.53125 23.189313 156.49817 20.15625 152.75 20.15625 L 135.84375 20.15625 L 135.84375 30.0625 C 135.84403 30.139375 135.85125 30.57975 135.84375 30.65625 C 135.8375 30.727875 135.76925 31.107625 135.75 31.21875 L 135.78125 31.21875 C 135.76725 31.297125 135.64686 31.76725 135.625 31.84375 C 135.6045 31.915625 135.47778 32.26755 135.4375 32.375 C 135.43625 32.37875 135.44 32.43 135.4375 32.4375 C 135.40713 32.510875 135.26871 32.709975 135.25 32.75 C 135.22938 32.794125 135.14837 33.051 135.125 33.09375 C 135.10163 33.1365 134.93221 33.365037 134.90625 33.40625 C 134.88025 33.4475 134.74723 33.67925 134.71875 33.71875 C 134.69025 33.75825 134.53089 33.9936 134.5 34.03125 C 134.46913 34.068875 134.25194 34.27685 134.21875 34.3125 C 134.1855 34.348125 134.00409 34.528988 133.96875 34.5625 C 133.93338 34.596 133.69361 34.781262 133.65625 34.8125 C 133.65634 34.8225 133.65634 34.833375 133.65625 34.84375 C 133.59538 34.893875 133.25307 35.143787 133.1875 35.1875 C 133.12188 35.23125 132.7259 35.463125 132.65625 35.5 C 132.62563 35.52175 132.59438 35.542625 132.5625 35.5625 C 132.515 35.58425 132.3385 35.628 132.1875 35.6875 C 132.16375 35.69875 132.07513 35.75075 132 35.78125 C 131.84965 35.842375 131.64318 35.920563 131.59375 35.9375 C 131.54212 35.950125 131.49 35.960625 131.4375 35.96875 C 131.37637 35.984 131.10602 36.037125 130.96875 36.0625 C 130.94425 36.0675 130.88612 36.092125 130.875 36.09375 L 130.875 36.0625 C 130.73491 36.085375 130.41422 36.181125 130.34375 36.1875 C 130.26363 36.195 129.79923 36.188513 129.71875 36.1875 C 129.65 36.18625 129.25589 36.1325 129.1875 36.125 C 129.11912 36.1175 128.72371 36.075875 128.65625 36.0625 C 128.58875 36.049125 128.22226 35.956875 128.15625 35.9375 C 128.09025 35.918125 127.72031 35.806313 127.65625 35.78125 C 127.59225 35.75625 127.1866 35.593112 127.125 35.5625 C 127.06337 35.531875 126.74616 35.348425 126.6875 35.3125 C 126.62888 35.276625 126.30526 35.04095 126.25 35 C 126.19475 34.959 125.89519 34.701912 125.84375 34.65625 C 125.793 34.6115 125.51541 34.361513 125.46875 34.3125 C 125.42212 34.2635 125.16724 33.959125 125.125 33.90625 C 125.08275 33.853375 124.85 33.525087 124.8125 33.46875 C 124.775 33.412375 124.56373 33.121875 124.53125 33.0625 C 124.49877 33.003125 124.30845 32.624462 124.28125 32.5625 C 124.25405 32.5005 124.14673 32.126588 124.125 32.0625 C 124.10327 31.998375 123.98484 31.628238 123.96875 31.5625 C 123.95266 31.49675 123.88533 31.129388 123.875 31.0625 C 123.86362 30.983 123.81564 30.517813 123.8125 30.4375 C 123.81113 30.395875 123.81164 30.162913 123.8125 30.0625 C 123.81269 30.04025 123.8122 30.00925 123.8125 30 L 123.8125 20.15625 L 115.84375 20.15625 L 115.84375 30.03125 L 115.84375 30.0625 C 115.84322 30.1765 115.84988 30.583188 115.84375 30.65625 C 115.83725 30.734125 115.79551 31.1731 115.78125 31.25 C 115.76699 31.326875 115.64689 31.768675 115.625 31.84375 C 115.60311 31.918875 115.4668 32.364987 115.4375 32.4375 C 115.4082 32.51 115.22392 32.899538 115.1875 32.96875 C 115.15108 33.038 114.91817 33.403537 114.875 33.46875 C 114.83182 33.534 114.54948 33.939437 114.5 34 C 114.45052 34.060625 114.14905 34.35095 114.09375 34.40625 C 114.03845 34.4615 113.71681 34.763013 113.65625 34.8125 C 113.59569 34.862 113.22146 35.144325 113.15625 35.1875 C 113.09104 35.230625 112.72546 35.463575 112.65625 35.5 C 112.58704 35.536375 112.16626 35.7207 112.09375 35.75 C 112.02124 35.77925 111.57508 35.9156 111.5 35.9375 C 111.42492 35.959375 111.01439 36.079487 110.9375 36.09375 C 110.86061 36.108 110.42169 36.181 110.34375 36.1875 C 110.26581 36.19375 109.79695 36.18875 109.71875 36.1875 C 109.64238 36.18625 109.20086 36.134 109.125 36.125 C 109.04914 36.11625 108.63711 36.078875 108.5625 36.0625 C 108.48789 36.046125 108.04141 35.92985 107.96875 35.90625 C 107.89609 35.882625 107.47625 35.68685 107.40625 35.65625 C 107.33625 35.625625 106.97292 35.4748 106.90625 35.4375 C 106.83957 35.40025 106.46895 35.168637 106.40625 35.125 C 106.34355 35.081375 105.99563 34.768313 105.9375 34.71875 C 105.87937 34.669125 105.553 34.398762 105.5 34.34375 C 105.447 34.28875 105.17236 33.966188 105.125 33.90625 C 105.07764 33.84625 104.79127 33.470538 104.75 33.40625 C 104.70873 33.342 104.53478 32.943013 104.5 32.875 C 104.46523 32.807 104.24671 32.414838 104.21875 32.34375 C 104.19079 32.272625 104.08337 31.885988 104.0625 31.8125 C 104.04162 31.739 103.91983 31.293925 103.90625 31.21875 C 103.89268 31.143625 103.81866 30.701137 103.8125 30.625 C 103.80675 30.554 103.81306 30.175825 103.8125 30.0625 L 103.8125 30.03125 L 103.8125 20.15625 L 95.84375 20.15625 L 95.84375 30.03125 L 95.84375 30.0625 C 95.843215 30.1765 95.849875 30.583188 95.84375 30.65625 C 95.83725 30.734125 95.795512 31.1731 95.78125 31.25 C 95.766987 31.326875 95.646894 31.768675 95.625 31.84375 C 95.6031 31.918875 95.466804 32.364988 95.4375 32.4375 C 95.4082 32.51 95.22392 32.899538 95.1875 32.96875 C 95.151075 33.038 94.918169 33.403537 94.875 33.46875 C 94.831825 33.534 94.549484 33.939437 94.5 34 C 94.450513 34.060625 94.149051 34.35095 94.09375 34.40625 C 94.03845 34.4615 93.716812 34.763012 93.65625 34.8125 C 93.595687 34.862 93.221464 35.144325 93.15625 35.1875 C 93.091037 35.230625 92.72546 35.463575 92.65625 35.5 C 92.587037 35.536375 92.16626 35.7207 92.09375 35.75 C 92.021238 35.77925 91.57508 35.9156 91.5 35.9375 C 91.424925 35.959375 91.014395 36.079487 90.9375 36.09375 C 90.8606 36.108 90.421687 36.181 90.34375 36.1875 C 90.265813 36.19375 89.796946 36.18875 89.71875 36.1875 C 89.642375 36.18625 89.20086 36.134 89.125 36.125 C 89.049138 36.11625 88.637115 36.078875 88.5625 36.0625 C 88.487887 36.046125 88.041405 35.92985 87.96875 35.90625 C 87.8961 35.882625 87.476246 35.68685 87.40625 35.65625 C 87.33625 35.625625 86.972918 35.4748 86.90625 35.4375 C 86.839587 35.40025 86.468948 35.168637 86.40625 35.125 C 86.34355 35.081375 85.995626 34.768313 85.9375 34.71875 C 85.879375 34.669125 85.552997 34.398762 85.5 34.34375 C 85.447 34.28875 85.17236 33.966188 85.125 33.90625 C 85.077637 33.84625 84.791269 33.470538 84.75 33.40625 C 84.708737 33.342 84.53478 32.943012 84.5 32.875 C 84.465225 32.807 84.246709 32.414838 84.21875 32.34375 C 84.190787 32.272625 84.083369 31.885988 84.0625 31.8125 C 84.041637 31.739 83.919829 31.293925 83.90625 31.21875 C 83.892675 31.143625 83.818663 30.701137 83.8125 30.625 C 83.80675 30.554 83.813065 30.175825 83.8125 30.0625 L 83.8125 30.03125 L 83.8125 20.15625 L 75.84375 20.15625 L 75.84375 30.03125 L 75.84375 30.0625 C 75.843215 30.1765 75.849875 30.583188 75.84375 30.65625 C 75.83725 30.734125 75.795512 31.1731 75.78125 31.25 C 75.766987 31.326875 75.646894 31.768675 75.625 31.84375 C 75.6031 31.918875 75.466804 32.364988 75.4375 32.4375 C 75.4082 32.51 75.22392 32.899538 75.1875 32.96875 C 75.151075 33.038 74.918169 33.403537 74.875 33.46875 C 74.831837 33.534 74.549484 33.939437 74.5 34 C 74.450513 34.060625 74.149051 34.35095 74.09375 34.40625 C 74.03845 34.4615 73.716813 34.763012 73.65625 34.8125 C 73.595687 34.862 73.221464 35.144325 73.15625 35.1875 C 73.091037 35.230625 72.72546 35.463575 72.65625 35.5 C 72.587037 35.536375 72.16626 35.7207 72.09375 35.75 C 72.021237 35.77925 71.57508 35.9156 71.5 35.9375 C 71.424925 35.959375 71.014395 36.079488 70.9375 36.09375 C 70.8606 36.108 70.421688 36.181 70.34375 36.1875 C 70.265812 36.19375 69.796946 36.18875 69.71875 36.1875 C 69.642375 36.18625 69.20086 36.134 69.125 36.125 C 69.049138 36.11625 68.637115 36.078875 68.5625 36.0625 C 68.487887 36.046125 68.041405 35.92985 67.96875 35.90625 C 67.8961 35.882625 67.476246 35.68685 67.40625 35.65625 C 67.33625 35.625625 66.972918 35.4748 66.90625 35.4375 C 66.839588 35.40025 66.468947 35.168637 66.40625 35.125 C 66.34355 35.081375 65.995626 34.768313 65.9375 34.71875 C 65.879375 34.669125 65.552998 34.398763 65.5 34.34375 C 65.447 34.28875 65.17236 33.966187 65.125 33.90625 C 65.077637 33.84625 64.791269 33.470538 64.75 33.40625 C 64.708737 33.342 64.53478 32.943013 64.5 32.875 C 64.465225 32.807 64.246709 32.414838 64.21875 32.34375 C 64.190787 32.272625 64.083369 31.885988 64.0625 31.8125 C 64.041637 31.739 63.919829 31.293925 63.90625 31.21875 C 63.892675 31.143625 63.818663 30.701137 63.8125 30.625 C 63.80675 30.554 63.813065 30.175825 63.8125 30.0625 L 63.8125 30.03125 L 63.8125 20.15625 L 55.84375 20.15625 L 55.84375 30.03125 L 55.84375 30.0625 C 55.843215 30.1765 55.849875 30.583188 55.84375 30.65625 C 55.83725 30.734125 55.795512 31.1731 55.78125 31.25 C 55.766988 31.326875 55.646894 31.768675 55.625 31.84375 C 55.6031 31.918875 55.466804 32.364988 55.4375 32.4375 C 55.4082 32.51 55.22392 32.899538 55.1875 32.96875 C 55.151075 33.038 54.918169 33.403537 54.875 33.46875 C 54.831837 33.534 54.549484 33.939437 54.5 34 C 54.450513 34.060625 54.149051 34.35095 54.09375 34.40625 C 54.03845 34.4615 53.716813 34.763012 53.65625 34.8125 C 53.595687 34.862 53.221464 35.144325 53.15625 35.1875 C 53.091038 35.230625 52.72546 35.463575 52.65625 35.5 C 52.587037 35.536375 52.16626 35.7207 52.09375 35.75 C 52.021237 35.77925 51.57508 35.9156 51.5 35.9375 C 51.424925 35.959375 51.014395 36.079488 50.9375 36.09375 C 50.8606 36.108 50.421687 36.181 50.34375 36.1875 C 50.265812 36.19375 49.796946 36.18875 49.71875 36.1875 C 49.642375 36.18625 49.20086 36.134 49.125 36.125 C 49.049138 36.11625 48.637115 36.078875 48.5625 36.0625 C 48.487887 36.046125 48.041405 35.92985 47.96875 35.90625 C 47.8961 35.882625 47.476246 35.68685 47.40625 35.65625 C 47.33625 35.625625 46.972918 35.4748 46.90625 35.4375 C 46.839588 35.40025 46.468947 35.168638 46.40625 35.125 C 46.34355 35.081375 45.995626 34.768313 45.9375 34.71875 C 45.879375 34.669125 45.552998 34.398763 45.5 34.34375 C 45.447 34.28875 45.17236 33.966187 45.125 33.90625 C 45.077638 33.84625 44.791269 33.470538 44.75 33.40625 C 44.708738 33.342 44.53478 32.943012 44.5 32.875 C 44.465225 32.807 44.246709 32.414838 44.21875 32.34375 C 44.190787 32.272625 44.083369 31.885988 44.0625 31.8125 C 44.041638 31.739 43.919829 31.293925 43.90625 31.21875 C 43.892675 31.143625 43.818663 30.701137 43.8125 30.625 C 43.80675 30.554 43.813065 30.175825 43.8125 30.0625 C 43.81246 30.055 43.812411 30.036375 43.8125 30.03125 L 43.8125 20.15625 L 29.5625 20.15625 z M 42.75 63.09375 L 46.9375 63.09375 L 140.90625 63.09375 L 140.90625 71.4375 L 46.9375 71.4375 L 42.75 71.4375 L 42.75 63.09375 z M 42.75 95.0625 L 46.9375 95.0625 L 140.90625 95.0625 L 140.90625 103.1875 C 141.56672 103.84344 142.28733 104.56846 143.15625 105.4375 L 143.1875 105.4375 L 143.1875 105.375 L 147.125 109.25 A 5.812161 5.812161 0 0 1 147.21875 117.375 L 136.125 129.0625 L 140.90625 129.0625 L 140.90625 137.46875 L 128.15625 137.46875 L 126.59375 139.125 C 120.9297 145.10412 115.71159 150.63715 111.875 154.6875 C 109.9567 156.71268 108.36672 158.35363 107.25 159.53125 C 106.19886 160.6397 105.94127 161.01899 105.46875 161.5 L 105.34375 161.59375 L 104.875 162.125 A 5.812161 5.812161 0 0 1 100.75 163.9375 A 5.812161 5.812161 0 0 1 96.53125 162.21875 L 85.5 151.25 L 74.53125 140.28125 A 5.812161 5.812161 0 0 1 73 137.46875 L 46.9375 137.46875 L 42.75 137.46875 L 42.75 129.0625 L 46.9375 129.0625 L 77.15625 129.0625 L 78 128.09375 L 81.71875 123.8125 A 5.812161 5.812161 0 0 1 90.0625 123.40625 L 90.6875 124 A 5.812161 5.812161 0 0 1 90.75 124.0625 C 90.821375 124.13151 93.597508 126.76335 96.03125 129.0625 L 104.28125 129.0625 L 113.6875 119.40625 C 118.43958 114.50594 122.76965 110.07394 125.90625 106.84375 C 127.29314 105.41548 128.32877 104.32138 129.1875 103.4375 L 46.9375 103.4375 L 42.75 103.4375 L 42.75 95.0625 z "
       transform="matrix(0.8,0,0,-0.8,0,144)"
       id="rect3854" /><path
       transform="translate(-1.6,0)"
       style="font-size:medium;font-style:normal;font-variant:normal;font-weight:normal;font-stretch:normal;text-indent:0;text-align:start;text-decoration:none;line-height:normal;letter-spacing:normal;word-spacing:normal;text-transform:none;direction:ltr;block-progression:tb;writing-mode:lr-tb;text-anchor:start;baseline-shift:baseline;color:#000000;fill:#20335e;fill-opacity:1;stroke:none;stroke-width:6.69726944;marker:none;visibility:visible;display:inline;overflow:visible;enable-background:accumulate;font-family:Sans;-inkscape-font-specification:Sans"
       d="M 41.40625,116.53125 A 3.3489696,3.3489696 0 0 0 38.125,119.9375 l 0,14.125 a 3.3489696,3.3489696 0 1 0 6.6875,0 l 0,-14.125 a 3.3489696,3.3489696 0 0 0 -3.40625,-3.40625 z m 16,0 A 3.3489696,3.3489696 0 0 0 54.125,119.9375 l 0,14.125 a 3.3489696,3.3489696 0 1 0 6.6875,0 l 0,-14.125 a 3.3489696,3.3489696 0 0 0 -3.40625,-3.40625 z m 16,0 A 3.3489696,3.3489696 0 0 0 70.125,119.9375 l 0,14.125 a 3.3489696,3.3489696 0 1 0 6.6875,0 l 0,-14.125 a 3.3489696,3.3489696 0 0 0 -3.40625,-3.40625 z m 16,0 A 3.3489696,3.3489696 0 0 0 86.125,119.9375 l 0,14.125 a 3.3489696,3.3489696 0 1 0 6.6875,0 l 0,-14.125 a 3.3489696,3.3489696 0 0 0 -3.40625,-3.40625 z m 16,0 a 3.3489696,3.3489696 0 0 0 -2.15625,0.84375 3.3489696,3.3489696 0 0 0 -1.09375,2 3.3489696,3.3489696 0 0 0 -0.0312,0.34375 3.3489696,3.3489696 0 0 0 0,0.21875 l 0,14.125 a 3.3489696,3.3489696 0 0 0 0,0.34375 3.3489696,3.3489696 0 0 0 0.0937,0.65625 3.3489696,3.3489696 0 0 0 0.0937,0.3125 3.3489696,3.3489696 0 0 0 0.125,0.3125 3.3489696,3.3489696 0 0 0 0.5625,0.84375 3.3489696,3.3489696 0 0 0 0.78125,0.625 3.3489696,3.3489696 0 0 0 0.9375,0.34375 3.3489696,3.3489696 0 0 0 2.28125,-0.28125 3.3489696,3.3489696 0 0 0 0.5625,-0.34375 3.3489696,3.3489696 0 0 0 0.46875,-0.46875 3.3489696,3.3489696 0 0 0 0.375,-0.5625 3.3489696,3.3489696 0 0 0 0.15625,-0.3125 3.3489696,3.3489696 0 0 0 0.0937,-0.3125 3.3489696,3.3489696 0 0 0 0.15625,-0.65625 3.3489696,3.3489696 0 0 0 0,-0.5 l 0,-14.125 a 3.3489696,3.3489696 0 0 0 -0.0625,-0.65625 3.3489696,3.3489696 0 0 0 -0.1875,-0.65625 3.3489696,3.3489696 0 0 0 -0.96875,-1.34375 3.3489696,3.3489696 0 0 0 -0.5625,-0.375 3.3489696,3.3489696 0 0 0 -0.3125,-0.125 3.3489696,3.3489696 0 0 0 -0.3125,-0.125 3.3489696,3.3489696 0 0 0 -0.3125,-0.0625 3.3489696,3.3489696 0 0 0 -0.6875,-0.0625 z"
       id="path3934" /><path
       style="fill:#20355e;fill-opacity:1;fill-rule:nonzero;stroke:none"
       d="m 71.70248,26.28506 -8.781936,8.770454 2.977203,3.409886 2.977193,3.409937 0.4943,-0.477993 c 0.27186,-0.262855 2.87495,-2.718199 5.78465,-5.456332 l 5.29036,-4.978254 13.82386,14.254985 c 7.60311,7.840272 13.84389,14.256197 13.86837,14.257469 0.0244,0 1.4418,-1.39528 3.14959,-3.103573 L 114.39118,53.26566 97.91255,35.870062 C 88.8493,26.302656 81.22027,18.25846 80.95915,17.994385 l -0.47474,-0.480037 -8.78193,8.770712 0,0 z"
       id="path2993"
       inkscape:connector-curvature="0" /></g></svg>