<?xml version="1.0" encoding="UTF-8" standalone="no"?>
<svg
   xmlns:dc="http://purl.org/dc/elements/1.1/"
   xmlns:cc="http://creativecommons.org/ns#"
   xmlns:rdf="http://www.w3.org/1999/02/22-rdf-syntax-ns#"
   xmlns:svg="http://www.w3.org/2000/svg"
   xmlns="http://www.w3.org/2000/svg"
   xmlns:sodipodi="http://sodipodi.sourceforge.net/DTD/sodipodi-0.dtd"
   xmlns:inkscape="http://www.inkscape.org/namespaces/inkscape"
   version="1.1"
   id="Layer_1"
   x="0px"
   y="0px"
   width="100"
   height="100"
   viewBox="0 0 100 100"
   enable-background="new 0 0 100 100"
   xml:space="preserve"
   inkscape:version="0.48.5 r10040"
   sodipodi:docname="unfiled.svg"><metadata
   id="metadata11"><rdf:RDF><cc:Work
       rdf:about=""><dc:format>image/svg+xml</dc:format><dc:type
         rdf:resource="http://purl.org/dc/dcmitype/StillImage" /><dc:title /></cc:Work></rdf:RDF></metadata><defs
   id="defs9" /><sodipodi:namedview
   pagecolor="#ffa8ff"
   bordercolor="#666666"
   borderopacity="1"
   objecttolerance="10"
   gridtolerance="10"
   guidetolerance="10"
   inkscape:pageopacity="0"
   inkscape:pageshadow="2"
   inkscape:window-width="1600"
   inkscape:window-height="1148"
   id="namedview7"
   showgrid="false"
   fit-margin-top="0"
   fit-margin-left="0"
   fit-margin-right="0"
   fit-margin-bottom="0"
   inkscape:zoom="4.515"
   inkscape:cx="50.525821"
   inkscape:cy="40.322752"
   inkscape:window-x="-8"
   inkscape:window-y="-8"
   inkscape:window-maximized="1"
   inkscape:current-layer="Layer_1" />
<rect
   width="100"
   height="100"
   id="rect3"
   x="0"
   y="0"
   style="fill:none" />
<path
   d="M 10.639452,87.997364 13.601083,73.767886 7.5969558,43.418741 c -0.094762,-0.468757 0.026533,-0.948885 0.3297722,-1.319089 0.3032387,-0.363886 0.7467254,-0.576154 1.2268534,-0.576154 l 64.3459996,0 c 0.759361,0 1.411324,0.534459 1.555362,1.274867 l 1.183895,6.000337 6.465303,0 -0.91098,-4.409597 c -0.494026,-4.295883 -4.561216,-7.923376 -8.888686,-7.923376 -21.801186,-0.02125 -36.008174,-0.225195 -46.933778,0 l -18.0553405,0 c -1.95589,0 -3.6957223,0.740408 -4.9036233,2.087293 -1.2015836,1.353203 -1.7398325,3.166318 -1.5629431,4.830341 z"
   id="path5"
   inkscape:connector-curvature="0"
   sodipodi:nodetypes="ccccssccccccsccc"
   style="fill:#20335e;fill-opacity:1" />
<path
   style="fill:#ffffff;fill-opacity:1;stroke:#20335e;stroke-width:2.20416999;stroke-linecap:round;stroke-linejoin:round;stroke-miterlimit:4;stroke-opacity:1;stroke-dasharray:none"
   d="m 18.135151,12.54355 54.878548,0 0,54.928017 -55.416574,0 z"
   id="path3848"
   inkscape:connector-curvature="0" /><path
   style="fill:none;stroke:#20335e;stroke-width:3.00000024;stroke-linecap:round;stroke-linejoin:round;stroke-miterlimit:4;stroke-opacity:1;stroke-dasharray:none"
   d="m 24.87273,19.626426 41.170061,0"
   id="path3850"
   inkscape:connector-curvature="0" /><path
   d="m 32.935018,41.635794 c -1.24119,0 -2.47223,0.662012 -2.72441,1.460916 l -1.38195,4.343264 c -0.0508,0.161158 -0.0369,0.329805 0,0.47381 -4.79264,0.897124 -9.24457,4.947212 -10.22641,9.673632 l -6.04109,29.218318 c -0.4877,2.352627 -0.0723,4.525522 1.22402,6.120053 1.29634,1.594531 3.37416,2.448021 5.76469,2.448021 l 61.24001,0 c 5.4722,0 11.04674,-4.512572 12.161138,-9.871053 l 6.04109,-29.178834 c 0.49275,-2.355154 0.0736,-4.525522 -1.22402,-6.120052 -1.30392,-1.598321 -3.36658,-2.487506 -5.764688,-2.487506 l -45.20942,0 c 0.11615,-0.140733 0.18826,-0.28042 0.2369,-0.434326 l 1.38195,-4.382748 c 0.11164,-0.351133 0.0175,-0.670406 -0.27639,-0.908137 -0.29541,-0.238296 -0.75967,-0.355358 -1.30298,-0.355358 l -11.48991,0 -0.71071,0 -0.59226,0 -1.10556,0 z"
   id="path2992"
   inkscape:connector-curvature="0"
   style="fill:#20335e;fill-opacity:1" /><path
   inkscape:connector-curvature="0"
   id="path4364"
   d="m 24.87273,27.626426 41.170061,0"
   style="fill:none;stroke:#20335e;stroke-width:3.00000024;stroke-linecap:round;stroke-linejoin:round;stroke-miterlimit:4;stroke-opacity:1;stroke-dasharray:none" /><path
   style="fill:none;stroke:#20335e;stroke-width:3.00000024;stroke-linecap:round;stroke-linejoin:round;stroke-miterlimit:4;stroke-opacity:1;stroke-dasharray:none"
   d="m 24.87273,35.626426 41.170061,0"
   id="path4366"
   inkscape:connector-curvature="0" /></svg>